<svg width="244" height="282" viewBox="0 0 244 282" fill="none" xmlns="http://www.w3.org/2000/svg">
<g filter="url(#filter0_d_406_24695)">
<path d="M26.0943 141.774C23.474 148.681 35.8928 223.648 166.834 274.818C174.457 266.829 228.656 87.0828 229.661 81.0072C230.666 74.9316 221.511 54.7521 222.246 51.0425C222.981 47.3329 28.7491 134.813 26.0943 141.774Z" fill="#F03C69"/>
<path d="M141.163 210.307C133.186 198.352 121.318 192.864 123.918 176.629C125.822 165.346 132.111 156.07 137.053 146.245C143.457 133.367 142.965 120.592 138.812 107.081C136.754 100.996 135.245 94.738 134.305 88.3831C82.7804 111.693 27.501 138.086 26.0938 141.774C23.5536 148.45 34.9708 217.763 151.672 268.561C151.683 268.063 151.679 267.56 151.709 267.053C152.341 246.738 153.15 228.248 141.163 210.307Z" fill="#DB2353"/>
<path d="M229.671 80.9784C230.692 74.8594 221.521 54.7233 222.256 51.0137C222.281 50.9415 222.18 50.9065 222.025 50.9336C218.589 54.8723 215.706 59.0352 216.066 62.105C216.147 63.4115 220.11 64.4448 220.579 66.0798C221.45 69.3104 220.179 70.0351 219.394 73.0478C218.675 77.362 215.926 80.4869 219.804 84.517C201.546 97.235 151.864 205.86 127.459 256.998C140.267 263.662 153.431 269.618 166.892 274.838C174.443 266.824 228.651 87.0974 229.671 80.9784Z" fill="#FF6C9D"/>
<path d="M138.551 232.509C136.433 230.027 110.54 232.511 74.9114 200.099C51.815 179.15 42.01 151.318 37.9565 134.299C30.8278 138.107 26.4736 140.772 26.0942 141.774C23.4739 148.681 35.8927 223.648 166.834 274.818C167.999 273.604 170.251 268.365 173.218 260.364C173.209 260.344 140.683 234.995 138.551 232.509Z" fill="white"/>
<path d="M66.3198 209.856C41.1663 187.045 31.7947 156.095 28.4145 139.795C27.5153 140.287 26.7297 140.963 26.1088 141.779C23.8077 147.858 33.0433 205.816 122.668 254.529C136.947 262.231 151.696 269.029 166.828 274.881C166.828 274.881 136.263 246.02 134.135 243.664C132.006 241.309 101.978 242.23 66.3198 209.856Z" fill="#0B9E4E"/>
<path d="M162.828 139.061C162.498 139.542 162.07 139.948 161.572 140.253C161.074 140.558 160.518 140.754 159.939 140.828C159.36 140.903 158.772 140.854 158.213 140.685C157.654 140.517 157.137 140.232 156.696 139.85C156.255 139.468 155.9 138.996 155.654 138.467C155.407 137.938 155.275 137.363 155.267 136.779C155.258 136.196 155.373 135.617 155.604 135.081C155.835 134.544 156.176 134.063 156.606 133.668C158.125 131.945 165.071 126.893 166.818 128.34C168.566 129.787 164.342 137.352 162.828 139.061Z" fill="#7B1D00"/>
<path d="M120.142 134.155C119.2 134.369 118.212 134.231 117.364 133.767C116.516 133.303 115.867 132.545 115.54 131.635C115.212 130.726 115.228 129.728 115.586 128.83C115.943 127.932 116.616 127.195 117.479 126.759C119.542 126.034 127.789 125.025 128.47 127.073C129.152 129.122 122.177 133.42 120.142 134.155Z" fill="#7B1D00"/>
<path d="M167.724 99.6243C167.217 99.9863 166.644 100.245 166.037 100.385C165.43 100.526 164.802 100.545 164.187 100.443C163.573 100.34 162.985 100.118 162.456 99.7881C161.928 99.4583 161.47 99.0277 161.108 98.5209C160.746 98.014 160.487 97.4408 160.347 96.834C160.206 96.2272 160.187 95.5987 160.289 94.9843C160.392 94.37 160.614 93.7818 160.944 93.2534C161.274 92.7251 161.704 92.2668 162.211 91.9048C164.357 90.383 173.459 86.4824 174.986 88.6134C176.513 90.7445 169.869 98.1024 167.724 99.6243Z" fill="#7B1D00"/>
<path d="M173.518 201.6C172.89 202.692 171.855 203.489 170.64 203.818C169.425 204.146 168.129 203.978 167.037 203.351C165.945 202.724 165.148 201.689 164.819 200.473C164.491 199.258 164.659 197.962 165.286 196.871C166.589 194.604 173.262 187.256 175.529 188.559C177.796 189.863 174.84 199.324 173.518 201.6Z" fill="#7B1D00"/>
<path d="M200.18 149.222C199.656 150.067 198.824 150.676 197.86 150.92C196.896 151.164 195.874 151.024 195.011 150.53C194.148 150.036 193.511 149.226 193.233 148.271C192.956 147.315 193.06 146.29 193.524 145.41C194.58 143.575 199.95 137.653 201.789 138.695C203.629 139.737 201.222 147.382 200.18 149.222Z" fill="#7B1D00"/>
<path d="M122.673 254.466C136.953 262.169 151.702 268.966 166.834 274.818C166.834 274.818 136.263 246.02 134.135 243.665C134.135 243.665 133.422 250.392 132.119 251.769C127.401 256.978 122.673 254.466 122.673 254.466Z" fill="#8ACD4C"/>
</g>
<defs>
<filter id="filter0_d_406_24695" x="19.7961" y="50.9244" width="209.955" height="230.957" filterUnits="userSpaceOnUse" color-interpolation-filters="sRGB">
<feFlood flood-opacity="0" result="BackgroundImageFix"/>
<feColorMatrix in="SourceAlpha" type="matrix" values="0 0 0 0 0 0 0 0 0 0 0 0 0 0 0 0 0 0 127 0" result="hardAlpha"/>
<feOffset dx="-6" dy="7"/>
<feComposite in2="hardAlpha" operator="out"/>
<feColorMatrix type="matrix" values="0 0 0 0 0 0 0 0 0 0 0 0 0 0 0 0 0 0 0.25 0"/>
<feBlend mode="normal" in2="BackgroundImageFix" result="effect1_dropShadow_406_24695"/>
<feBlend mode="normal" in="SourceGraphic" in2="effect1_dropShadow_406_24695" result="shape"/>
</filter>
</defs>
</svg>
