<svg width="442" height="403" viewBox="0 0 442 403" fill="none" xmlns="http://www.w3.org/2000/svg">
<g filter="url(#filter0_d_406_24723)">
<path d="M334.518 190.302C332.684 190.863 330.706 190.707 328.982 189.867C327.258 189.027 325.917 187.564 325.229 185.774C309.095 144.302 256.085 40.0496 204.694 55.573C153.303 71.0964 167.058 187.295 176.657 230.755C177.096 232.734 176.732 234.806 175.643 236.517C174.554 238.227 172.83 239.434 170.851 239.874C168.872 240.313 166.8 239.948 165.089 238.859C163.379 237.771 162.172 236.047 161.732 234.068C160.192 227.117 124.99 63.8012 200.223 41.0111C275.456 18.221 336.804 173.612 339.376 180.24C340.105 182.122 340.059 184.217 339.245 186.065C338.432 187.913 336.919 189.362 335.039 190.096L334.518 190.302Z" fill="#692498"/>
<path d="M207.914 129.612C281.271 107.397 391.741 83.0639 404.11 87.131C410.068 89.1199 390.229 307.036 386.42 313.034C382.611 319.031 332.898 348.656 279.16 364.844C225.421 381.031 167.707 384.126 161.183 381.25C154.658 378.374 17.2769 208.188 21.1253 203.24C29.1334 192.906 134.56 151.849 207.914 129.612Z" fill="#56C5F0"/>
<path d="M396.012 92.3535C397.666 97.7926 300.686 127.573 215.144 153.503C129.603 179.433 32.9792 209.251 31.3555 203.873C29.7318 198.495 123.508 159.34 209.052 133.431C294.597 107.523 394.385 86.9544 396.012 92.3535Z" fill="#0786DD"/>
<path d="M31.0562 219.84C62.2575 263.786 155.813 378.914 161.14 381.256C167.664 384.132 225.391 381.124 279.117 364.85C308.036 355.862 335.95 343.911 362.415 329.188C305.173 335.295 246.754 329.89 192.067 310.074C136.05 289.568 77.3487 260.097 31.0562 219.84Z" fill="#00A1E9"/>
<path d="M404.319 122.58C404.772 113.871 405.046 106.375 405.129 100.469C340.58 131.241 273.488 156.369 204.605 175.57C147.932 191.229 88.9273 208.739 29.9474 218.238C33.4498 223.216 37.8447 229.211 42.9169 235.945C99.4671 226.22 155.99 209.503 210.337 194.505C276.878 175.942 341.761 151.885 404.319 122.58Z" fill="#FECF29"/>
<path d="M220.747 228.83C170.878 242.531 119.299 257.818 67.3553 267.767C71.7905 273.426 76.358 279.242 80.9964 285.092C130.174 275.185 179.157 260.818 226.476 247.744C285.782 231.193 343.797 210.323 400.055 185.301C400.65 177.738 401.232 170.243 401.793 163.059C343.212 189.574 282.687 211.562 220.747 228.83Z" fill="#FECF29"/>
<path d="M236.894 282.135C194.272 293.902 150.217 306.731 106.065 316.406C110.823 322.327 115.483 328.02 119.958 333.497C161.459 324.045 202.69 312.081 242.62 301.027C294.279 286.549 344.981 268.853 394.429 248.041C395.125 240.881 395.821 233.414 396.533 225.746C344.623 248.046 291.293 266.883 236.894 282.135Z" fill="#FECF29"/>
<path d="M253.04 335.417C217.932 345.124 181.931 355.508 145.614 364.288C150.323 370.113 155.359 375.667 160.696 380.924C193.854 372.66 226.686 363.189 258.769 354.331C302.236 342.116 345.041 327.658 387.012 311.014C387.796 307.405 388.88 299.42 390.172 288.569C345.368 306.722 299.586 322.362 253.04 335.417Z" fill="#FECF29"/>
<path d="M210.343 194.548C276.883 175.971 341.765 151.899 404.319 122.58C404.772 113.871 405.046 106.375 405.129 100.469C340.58 131.241 273.488 156.369 204.605 175.57C147.932 191.229 88.9273 208.739 29.9474 218.238L31.1015 219.856C37.0028 224.998 43.1196 229.956 49.3875 234.738C103.782 224.857 158.062 208.922 210.343 194.548Z" fill="#FFE131"/>
<path d="M116.903 277.141C153.954 268.257 190.691 257.636 226.476 247.744C285.782 231.193 343.796 210.323 400.055 185.301C400.649 177.738 401.232 170.243 401.792 163.059C343.224 189.593 282.709 211.602 220.778 228.892C178.454 240.595 135.052 253.221 91.2264 262.871C99.6478 267.845 108.207 272.602 116.903 277.141Z" fill="#FFE131"/>
<path d="M200.158 312.837L242.62 301.027C294.279 286.549 344.981 268.853 394.429 248.041C395.125 240.881 395.821 233.414 396.533 225.746C344.62 248.031 291.288 266.854 236.888 282.092C214.454 288.278 191.623 294.763 168.613 300.921C176.413 304.209 184.243 307.244 192.103 310.025C194.791 311.138 197.479 311.943 200.158 312.837Z" fill="#FFE131"/>
<path d="M387.011 311.014C387.795 307.405 388.88 299.42 390.171 288.569C352.376 303.959 313.735 317.425 274.549 329.23C293.703 331.361 312.986 332.091 332.246 331.417C350.67 324.98 368.925 318.179 387.011 311.014Z" fill="#FFE131"/>
<path d="M256.275 287.71C251.702 287.724 236.862 330.551 227.029 329.465C221.373 328.819 228.674 285.879 226.09 279.472C223.506 273.066 180.07 270.63 180.969 264.123C181.868 257.616 221.753 253.652 225.796 247.291C229.839 240.931 222.127 199.754 228.94 197.706C237.921 194.975 252.193 234.184 259.09 237.205C265.986 240.225 301.347 221.332 305.709 226.32C310.07 231.308 275.295 257.398 276.696 264.149C278.097 270.9 307.992 302.582 303.673 306.233C296.239 312.57 260.138 285.181 256.275 287.71Z" fill="#F54C47"/>
<path d="M167.16 216.425C168.372 220.412 168.375 224.671 167.166 228.66C165.957 232.649 163.591 236.189 160.369 238.833C157.146 241.476 153.212 243.104 149.063 243.509C144.915 243.915 140.739 243.08 137.066 241.111C133.392 239.142 130.385 236.127 128.427 232.447C126.468 228.768 125.645 224.59 126.063 220.443C126.481 216.296 128.12 212.366 130.772 209.151C133.425 205.936 136.973 203.581 140.965 202.383C146.301 200.783 152.053 201.362 156.962 203.994C161.872 206.626 165.538 211.095 167.16 216.425Z" fill="#BBE9F9"/>
<path d="M157.313 219.411C157.93 221.446 157.93 223.619 157.312 225.654C156.694 227.69 155.487 229.496 153.842 230.845C152.198 232.195 150.191 233.026 148.074 233.235C145.957 233.444 143.826 233.02 141.95 232.018C140.074 231.016 138.537 229.48 137.534 227.605C136.53 225.73 136.105 223.599 136.312 221.482C136.52 219.365 137.35 217.357 138.698 215.712C140.046 214.067 141.852 212.858 143.887 212.239C146.618 211.443 149.552 211.748 152.061 213.088C154.571 214.429 156.456 216.698 157.313 219.411Z" fill="#0786DD"/>
<path d="M289.962 179.228C291.158 183.219 293.512 186.767 296.726 189.42C299.94 192.073 303.868 193.713 308.015 194.132C312.161 194.551 316.338 193.73 320.018 191.774C323.697 189.817 326.714 186.813 328.685 183.141C330.656 179.469 331.493 175.295 331.09 171.147C330.688 166.999 329.063 163.064 326.423 159.84C323.782 156.616 320.244 154.248 316.257 153.035C312.27 151.823 308.013 151.821 304.025 153.03C298.687 154.641 294.208 158.306 291.571 163.218C288.934 168.13 288.355 173.889 289.962 179.228Z" fill="#BBE9F9"/>
<path d="M299.787 176.245C300.402 178.282 301.608 180.09 303.252 181.442C304.895 182.794 306.903 183.627 309.021 183.838C311.138 184.048 313.271 183.626 315.148 182.624C317.026 181.622 318.564 180.086 319.568 178.209C320.572 176.333 320.997 174.201 320.79 172.083C320.582 169.966 319.751 167.957 318.401 166.312C317.052 164.666 315.244 163.458 313.208 162.84C311.172 162.222 308.998 162.222 306.961 162.839C305.609 163.247 304.35 163.917 303.257 164.811C302.164 165.706 301.258 166.808 300.592 168.053C299.925 169.298 299.511 170.663 299.373 172.068C299.235 173.474 299.375 174.893 299.787 176.245Z" fill="#0786DD"/>
<path d="M312.325 180.42C310.488 180.975 308.509 180.814 306.785 179.97C305.061 179.126 303.721 177.662 303.033 175.87C286.898 134.398 233.781 30.1611 182.476 45.6722C131.171 61.1833 144.874 177.478 154.381 220.906C154.817 222.886 154.449 224.958 153.358 226.666C152.267 228.374 150.542 229.579 148.563 230.016C146.583 230.452 144.511 230.085 142.803 228.994C141.094 227.903 139.889 226.178 139.453 224.198C137.913 217.247 102.71 53.9311 177.943 31.141C253.176 8.35093 314.528 163.763 317.099 170.392C317.829 172.274 317.782 174.369 316.969 176.216C316.156 178.064 314.643 179.514 312.762 180.247L312.325 180.42Z" fill="#9650C4"/>
<path d="M310.12 173.123C310.12 173.123 249.625 17.3908 180.277 38.4189C110.93 59.447 147.109 222.514 147.109 222.514L148.676 229.967C149.653 229.752 150.578 229.348 151.398 228.775C152.218 228.203 152.917 227.475 153.455 226.632C153.992 225.789 154.359 224.848 154.532 223.864C154.706 222.879 154.684 221.87 154.467 220.894C144.89 177.432 131.202 61.2448 182.501 45.6906C233.8 30.1363 286.92 134.395 303.057 175.889C303.746 177.68 305.086 179.145 306.81 179.989C308.533 180.833 310.512 180.993 312.349 180.438L312.916 180.247L313.529 179.918L310.12 173.123Z" fill="#692498"/>
</g>
<defs>
<filter id="filter0_d_406_24723" x="7.0459" y="28.8611" width="398.172" height="360.361" filterUnits="userSpaceOnUse" color-interpolation-filters="sRGB">
<feFlood flood-opacity="0" result="BackgroundImageFix"/>
<feColorMatrix in="SourceAlpha" type="matrix" values="0 0 0 0 0 0 0 0 0 0 0 0 0 0 0 0 0 0 127 0" result="hardAlpha"/>
<feOffset dx="-14" dy="7"/>
<feComposite in2="hardAlpha" operator="out"/>
<feColorMatrix type="matrix" values="0 0 0 0 0 0 0 0 0 0 0 0 0 0 0 0 0 0 0.25 0"/>
<feBlend mode="normal" in2="BackgroundImageFix" result="effect1_dropShadow_406_24723"/>
<feBlend mode="normal" in="SourceGraphic" in2="effect1_dropShadow_406_24723" result="shape"/>
</filter>
</defs>
</svg>
