<svg width="1279" height="527" viewBox="0 0 1279 527" fill="none" xmlns="http://www.w3.org/2000/svg">
<g clip-path="url(#clip0_419_29456)">
<g filter="url(#filter0_d_419_29456)">
<path d="M-58.9058 107.774C-61.5261 114.681 -49.1073 189.649 81.8338 240.818C89.4569 232.829 143.656 53.083 144.661 47.0073C145.666 40.9317 136.51 20.7522 137.246 17.0426C137.981 13.3331 -56.2511 100.813 -58.9058 107.774Z" fill="#F03C69"/>
<path d="M56.1634 176.307C48.1866 164.352 36.3183 158.864 38.9185 142.629C40.8218 131.347 47.111 122.07 52.0529 112.245C58.4574 99.3673 57.9656 86.5917 53.8126 73.0812C51.7538 66.9959 50.2453 60.7382 49.3051 54.3832C-2.21946 77.6929 -57.4989 104.087 -58.9061 107.774C-61.4463 114.45 -50.0291 183.763 66.6719 234.561C66.6826 234.063 66.6789 233.56 66.7091 233.053C67.3413 212.738 68.1502 194.248 56.1634 176.307Z" fill="#DB2353"/>
<path d="M144.672 46.9785C145.692 40.8596 136.521 20.7235 137.256 17.0139C137.281 16.9416 137.18 16.9066 137.025 16.9338C133.589 20.8725 130.706 25.0353 131.066 28.1051C131.148 29.4116 135.11 30.4449 135.579 32.0799C136.45 35.3105 135.179 36.0352 134.394 39.0479C133.676 43.3621 130.926 46.487 134.805 50.5171C116.546 63.2351 66.8639 171.86 42.4593 222.998C55.267 229.663 68.4311 235.618 81.8921 240.838C89.4429 232.824 143.651 53.0975 144.672 46.9785Z" fill="#FF6C9D"/>
<path d="M53.5507 198.509C51.4332 196.027 25.5402 198.511 -10.0887 166.099C-33.1851 145.15 -42.9901 117.318 -47.0436 100.299C-54.1723 104.107 -58.5266 106.772 -58.9059 107.774C-61.5262 114.681 -49.1074 189.648 81.8338 240.818C82.9989 239.604 85.2513 234.365 88.2182 226.364C88.2088 226.344 55.6826 200.995 53.5507 198.509Z" fill="white"/>
<path d="M-18.68 175.856C-43.8335 153.045 -53.2051 122.095 -56.5853 105.794C-57.4845 106.287 -58.2701 106.963 -58.891 107.779C-61.192 113.858 -51.9565 171.816 37.6678 220.529C51.9472 228.231 66.6965 235.029 81.8286 240.881C81.8286 240.881 51.2636 212.02 49.135 209.664C47.0064 207.309 16.9784 208.229 -18.68 175.856Z" fill="#0B9E4E"/>
<path d="M77.8279 105.061C77.498 105.542 77.0701 105.948 76.5722 106.253C76.0743 106.558 75.5177 106.754 74.9388 106.828C74.3598 106.903 73.7717 106.854 73.2129 106.685C72.6541 106.517 72.1372 106.232 71.6961 105.85C71.255 105.468 70.8997 104.996 70.6534 104.467C70.4071 103.938 70.2753 103.363 70.2668 102.779C70.2583 102.196 70.3732 101.617 70.604 101.081C70.8348 100.544 71.1762 100.063 71.606 99.6681C73.1253 97.9454 80.0705 92.8926 81.8182 94.3397C83.5659 95.7868 79.3422 103.352 77.8279 105.061Z" fill="#7B1D00"/>
<path d="M35.1423 100.155C34.1998 100.369 33.2114 100.231 32.3636 99.7668C31.5158 99.3027 30.8669 98.5445 30.5394 97.6351C30.2119 96.7258 30.2283 95.728 30.5855 94.8299C30.9427 93.9317 31.616 93.1953 32.4786 92.7592C34.5422 92.0342 42.7885 91.0246 43.4702 93.0731C44.1519 95.1217 37.177 99.4198 35.1423 100.155Z" fill="#7B1D00"/>
<path d="M82.7238 65.6243C82.2169 65.9863 81.6437 66.2448 81.0369 66.3853C80.4301 66.5257 79.8016 66.5453 79.1872 66.4428C78.5729 66.3403 77.9847 66.1179 77.4563 65.7881C76.928 65.4583 76.4697 65.0277 76.1077 64.5209C75.7458 64.014 75.4872 63.4408 75.3468 62.834C75.2063 62.2272 75.1868 61.5987 75.2892 60.9843C75.3917 60.37 75.6142 59.7818 75.9439 59.2534C76.2737 58.7251 76.7043 58.2668 77.2112 57.9048C79.3567 56.383 88.4593 52.4824 89.9861 54.6134C91.513 56.7445 84.8693 64.1024 82.7238 65.6243Z" fill="#7B1D00"/>
<path d="M88.5175 167.6C87.8904 168.692 86.8552 169.489 85.6399 169.818C84.4245 170.146 83.1285 169.978 82.0369 169.351C80.9454 168.724 80.1476 167.689 79.8193 166.473C79.4909 165.258 79.6588 163.962 80.286 162.871C81.5893 160.604 88.2619 153.256 90.5287 154.559C92.7955 155.863 89.8403 165.324 88.5175 167.6Z" fill="#7B1D00"/>
<path d="M115.18 115.221C114.656 116.067 113.824 116.676 112.86 116.92C111.896 117.164 110.874 117.024 110.011 116.53C109.148 116.036 108.51 115.226 108.233 114.27C107.955 113.315 108.059 112.29 108.523 111.41C109.58 109.575 114.949 103.653 116.789 104.695C118.628 105.737 116.222 113.382 115.18 115.221Z" fill="#7B1D00"/>
<path d="M37.6734 220.466C51.9528 228.169 66.7022 234.966 81.8343 240.818C81.8343 240.818 51.2637 212.02 49.1351 209.665C49.1351 209.665 48.422 216.392 47.1195 217.769C42.4015 222.978 37.6734 220.466 37.6734 220.466Z" fill="#8ACD4C"/>
</g>
<g filter="url(#filter1_d_419_29456)">
<path d="M-291.53 414.168C-291.53 414.168 -316.597 453.451 -310.148 464.142C-310.148 464.142 36.6785 556.393 358.261 496.665C679.843 436.937 887.079 244.809 883.704 223.027C880.329 201.245 622.468 84.794 298.683 129.931C-25.102 175.068 -324.924 372.577 -324.924 372.577C-327.666 384.887 -291.53 414.168 -291.53 414.168Z" fill="#FECF29"/>
<path d="M351.026 455.917C673.148 397.689 886.349 239.554 883.593 222.609C880.837 205.665 628.492 123.279 304.525 170.227C-8.03271 215.496 -303.042 371.121 -323.464 382.041C-315.161 395.676 -292.78 413.915 -292.78 413.915C-292.78 413.915 -308.368 438.46 -311.768 454.03C-288.878 458.038 40.2373 512.077 351.026 455.917Z" fill="#FFE131"/>
<path d="M336.166 364.77C41.3598 412.69 -201.671 428.512 -206.313 400.022C-210.955 371.532 24.4145 309.553 319.383 261.624C614.353 213.696 883.668 222.791 883.668 222.791C883.668 222.791 631.124 316.804 336.166 364.77Z" fill="#FDF258"/>
<path d="M45.0568 193.904C-7.99849 212.504 -57.8158 233.037 -102.615 253.35L-10.5013 511.665C46.2111 516.03 103.114 517.541 159.992 516.192L45.0568 193.904Z" fill="#56C5F0"/>
<path d="M181.717 516.219L64.004 186.43C57.3876 188.663 50.8591 190.912 44.3421 193.198L159.884 516.99C167.164 516.788 174.422 516.509 181.717 516.219Z" fill="#F7F6F7"/>
<path d="M56.6377 227.881L44.5841 194.049C-8.30156 212.605 -57.9539 233.105 -102.601 253.394L-93.2243 279.699C-47.5816 262.121 2.9678 244.281 56.6377 227.881Z" fill="#00A1E9"/>
<path d="M-21.0493 481.442L-10.083 512.12C46.4832 516.306 103.247 517.665 159.991 516.192L146.798 479.185C88.037 482.348 31.313 482.726 -21.0493 481.442Z" fill="#00A1E9"/>
<path d="M85.9067 305.596C26.6293 318.225 -26.2716 330.826 -70.1991 342.808L-45.7266 411.328C1.32132 408.178 56.6978 402.847 117.983 395.418L85.9067 305.596Z" fill="#AFDEF8"/>
<path d="M76.2755 221.093L63.9201 186.455C57.3319 188.68 50.8313 190.919 44.3422 193.196L56.405 227.015C62.9867 225.04 69.6063 223.053 76.2755 221.093Z" fill="#E7E5E8"/>
<path d="M167.955 477.424C160.843 477.791 153.781 478.185 146.769 478.479L160.328 516.747C167.436 516.634 174.605 516.587 181.717 516.219L167.955 477.424Z" fill="#E7E5E8"/>
<path d="M139.241 393.917L106.017 300.85C99.0457 302.277 92.1632 303.719 85.3309 305.187L117.953 396.563C124.947 395.671 132.043 394.789 139.241 393.917Z" fill="white"/>
</g>
<g filter="url(#filter2_d_419_29456)">
<path d="M1107.52 186.302C1105.68 186.863 1103.71 186.707 1101.98 185.867C1100.26 185.027 1098.92 183.564 1098.23 181.774C1082.1 140.302 1029.09 36.0496 977.694 51.573C926.303 67.0964 940.059 183.295 949.657 226.755C950.097 228.734 949.732 230.806 948.643 232.517C947.554 234.227 945.831 235.434 943.852 235.874C941.872 236.313 939.8 235.948 938.09 234.859C936.379 233.771 935.172 232.047 934.733 230.068C933.193 223.117 897.99 59.8012 973.223 37.0111C1048.46 14.221 1109.8 169.612 1112.38 176.24C1113.11 178.122 1113.06 180.217 1112.25 182.065C1111.43 183.913 1109.92 185.362 1108.04 186.096L1107.52 186.302Z" fill="#692498"/>
<path d="M980.914 125.612C1054.27 103.397 1164.74 79.0637 1177.11 83.1309C1183.07 85.1198 1163.23 303.036 1159.42 309.034C1155.61 315.031 1105.9 344.656 1052.16 360.844C998.421 377.031 940.707 380.126 934.183 377.25C927.658 374.374 790.277 204.188 794.125 199.24C802.133 188.906 907.56 147.849 980.914 125.612Z" fill="#56C5F0"/>
<path d="M1169.01 88.3535C1170.67 93.7926 1073.69 123.573 988.144 149.503C902.602 175.433 805.979 205.251 804.355 199.873C802.732 194.495 896.507 155.34 982.052 129.431C1067.6 103.523 1167.38 82.9544 1169.01 88.3535Z" fill="#0786DD"/>
<path d="M804.056 215.84C835.257 259.786 928.813 374.914 934.14 377.256C940.664 380.132 998.391 377.124 1052.12 360.85C1081.04 351.862 1108.95 339.911 1135.41 325.188C1078.17 331.295 1019.75 325.89 965.067 306.074C909.05 285.569 850.349 256.097 804.056 215.84Z" fill="#00A1E9"/>
<path d="M1177.32 118.579C1177.77 109.871 1178.05 102.375 1178.13 96.4688C1113.58 127.241 1046.49 152.368 977.605 171.569C920.932 187.229 861.927 204.739 802.947 214.238C806.45 219.216 810.845 225.211 815.917 231.945C872.467 222.219 928.99 205.503 983.337 190.505C1049.88 171.942 1114.76 147.884 1177.32 118.579Z" fill="#FECF29"/>
<path d="M993.747 224.83C943.878 238.531 892.298 253.818 840.355 263.767C844.79 269.426 849.358 275.242 853.996 281.092C903.174 271.185 952.157 256.818 999.476 243.744C1058.78 227.193 1116.8 206.323 1173.06 181.301C1173.65 173.738 1174.23 166.243 1174.79 159.059C1116.21 185.574 1055.69 207.562 993.747 224.83Z" fill="#FECF29"/>
<path d="M1009.89 278.135C967.272 289.902 923.217 302.731 879.065 312.406C883.823 318.327 888.483 324.02 892.959 329.497C934.459 320.045 975.69 308.081 1015.62 297.027C1067.28 282.549 1117.98 264.853 1167.43 244.041C1168.13 236.881 1168.82 229.414 1169.53 221.746C1117.62 244.046 1064.29 262.883 1009.89 278.135Z" fill="#FECF29"/>
<path d="M1026.04 331.417C990.932 341.124 954.931 351.508 918.614 360.288C923.323 366.113 928.359 371.667 933.696 376.924C966.854 368.66 999.686 359.189 1031.77 350.331C1075.24 338.116 1118.04 323.658 1160.01 307.014C1160.8 303.405 1161.88 295.42 1163.17 284.569C1118.37 302.722 1072.59 318.362 1026.04 331.417Z" fill="#FECF29"/>
<path d="M983.343 190.548C1049.88 171.971 1114.76 147.899 1177.32 118.579C1177.77 109.871 1178.05 102.375 1178.13 96.4688C1113.58 127.241 1046.49 152.368 977.605 171.569C920.932 187.229 861.927 204.739 802.947 214.238L804.102 215.856C810.003 220.998 816.12 225.955 822.387 230.737C876.782 220.857 931.062 204.922 983.343 190.548Z" fill="#FFE131"/>
<path d="M889.903 273.141C926.954 264.257 963.691 253.636 999.476 243.744C1058.78 227.193 1116.8 206.323 1173.05 181.301C1173.65 173.738 1174.23 166.243 1174.79 159.059C1116.22 185.593 1055.71 207.602 993.778 224.892C951.454 236.595 908.052 249.221 864.226 258.871C872.648 263.845 881.207 268.602 889.903 273.141Z" fill="#FFE131"/>
<path d="M973.158 308.837L1015.62 297.027C1067.28 282.549 1117.98 264.852 1167.43 244.041C1168.13 236.881 1168.82 229.414 1169.53 221.746C1117.62 244.031 1064.29 262.854 1009.89 278.091C987.454 284.278 964.623 290.763 941.613 296.921C949.413 300.209 957.243 303.244 965.103 306.025C967.791 307.138 970.479 307.943 973.158 308.837Z" fill="#FFE131"/>
<path d="M1160.01 307.014C1160.8 303.405 1161.88 295.42 1163.17 284.569C1125.38 299.959 1086.73 313.425 1047.55 325.23C1066.7 327.36 1085.99 328.091 1105.25 327.417C1123.67 320.98 1141.93 314.179 1160.01 307.014Z" fill="#FFE131"/>
<path d="M1029.27 283.71C1024.7 283.724 1009.86 326.551 1000.03 325.465C994.373 324.819 1001.67 281.879 999.09 275.472C996.506 269.066 953.07 266.63 953.969 260.123C954.868 253.616 994.753 249.652 998.796 243.291C1002.84 236.931 995.127 195.754 1001.94 193.706C1010.92 190.975 1025.19 230.184 1032.09 233.205C1038.99 236.225 1074.35 217.332 1078.71 222.32C1083.07 227.308 1048.29 253.398 1049.7 260.149C1051.1 266.9 1080.99 298.582 1076.67 302.233C1069.24 308.57 1033.14 281.181 1029.27 283.71Z" fill="#F54C47"/>
<path d="M940.16 212.425C941.373 216.413 941.375 220.671 940.166 224.66C938.957 228.649 936.592 232.189 933.369 234.833C930.146 237.476 926.212 239.104 922.063 239.51C917.915 239.915 913.74 239.081 910.066 237.111C906.392 235.142 903.386 232.127 901.427 228.448C899.468 224.768 898.646 220.59 899.063 216.443C899.481 212.296 901.12 208.366 903.773 205.151C906.425 201.936 909.973 199.581 913.965 198.383C919.301 196.783 925.053 197.362 929.963 199.994C934.872 202.626 938.539 207.096 940.16 212.425Z" fill="#BBE9F9"/>
<path d="M930.313 215.411C930.93 217.446 930.93 219.619 930.312 221.654C929.694 223.69 928.487 225.496 926.842 226.846C925.198 228.195 923.191 229.026 921.074 229.235C918.957 229.444 916.826 229.021 914.95 228.018C913.074 227.016 911.537 225.48 910.534 223.605C909.53 221.73 909.105 219.599 909.312 217.482C909.52 215.365 910.35 213.357 911.698 211.712C913.046 210.067 914.852 208.858 916.887 208.239C919.618 207.443 922.552 207.748 925.061 209.089C927.571 210.429 929.456 212.698 930.313 215.411Z" fill="#0786DD"/>
<path d="M1062.96 175.227C1064.16 179.219 1066.51 182.766 1069.73 185.42C1072.94 188.073 1076.87 189.713 1081.01 190.132C1085.16 190.551 1089.34 189.73 1093.02 187.773C1096.7 185.817 1099.71 182.813 1101.68 179.141C1103.66 175.469 1104.49 171.295 1104.09 167.147C1103.69 162.999 1102.06 159.064 1099.42 155.84C1096.78 152.616 1093.24 150.248 1089.26 149.035C1085.27 147.823 1081.01 147.821 1077.02 149.03C1071.69 150.641 1067.21 154.306 1064.57 159.218C1061.93 164.13 1061.35 169.889 1062.96 175.227Z" fill="#BBE9F9"/>
<path d="M1072.79 172.245C1073.4 174.282 1074.61 176.091 1076.25 177.442C1077.9 178.794 1079.9 179.628 1082.02 179.838C1084.14 180.048 1086.27 179.626 1088.15 178.624C1090.03 177.622 1091.56 176.086 1092.57 174.21C1093.57 172.333 1094 170.201 1093.79 168.084C1093.58 165.966 1092.75 163.957 1091.4 162.312C1090.05 160.666 1088.24 159.458 1086.21 158.84C1084.17 158.222 1082 158.222 1079.96 158.84C1078.61 159.247 1077.35 159.917 1076.26 160.812C1075.16 161.706 1074.26 162.808 1073.59 164.053C1072.93 165.298 1072.51 166.663 1072.37 168.069C1072.23 169.474 1072.38 170.893 1072.79 172.245Z" fill="#0786DD"/>
<path d="M1085.32 176.42C1083.49 176.975 1081.51 176.814 1079.79 175.97C1078.06 175.126 1076.72 173.662 1076.03 171.87C1059.9 130.398 1006.78 26.1612 955.476 41.6723C904.171 57.1834 917.874 173.478 927.381 216.906C927.817 218.886 927.449 220.958 926.358 222.666C925.267 224.375 923.542 225.58 921.563 226.016C919.583 226.453 917.511 226.085 915.803 224.994C914.094 223.903 912.889 222.178 912.453 220.198C910.913 213.247 875.71 49.9313 950.943 27.1412C1026.18 4.35105 1087.53 159.764 1090.1 166.392C1090.83 168.274 1090.78 170.369 1089.97 172.217C1089.16 174.064 1087.64 175.514 1085.76 176.247L1085.32 176.42Z" fill="#9650C4"/>
<path d="M1083.12 169.123C1083.12 169.123 1022.62 13.3907 953.278 34.4188C883.93 55.4468 920.109 218.513 920.109 218.513L921.677 225.967C922.653 225.752 923.578 225.348 924.398 224.775C925.218 224.203 925.917 223.475 926.455 222.632C926.993 221.789 927.359 220.848 927.533 219.864C927.706 218.879 927.684 217.87 927.467 216.894C917.89 173.431 904.202 57.2447 955.501 41.6904C1006.8 26.1362 1059.92 130.394 1076.06 171.889C1076.75 173.68 1078.09 175.145 1079.81 175.989C1081.53 176.832 1083.51 176.993 1085.35 176.438L1085.92 176.247L1086.53 175.918L1083.12 169.123Z" fill="#692498"/>
</g>
<g filter="url(#filter3_d_419_29456)">
<path d="M1142.99 209.595C1139.39 205.542 1148.47 179.281 1170.84 159.462C1193.21 139.643 1220.36 133.777 1223.95 137.825L1340.45 290.225C1343.12 293.234 1331.82 307.605 1315.21 322.332C1298.61 337.058 1283.01 346.487 1280.32 343.538L1142.99 209.595Z" fill="#F03C69"/>
<path d="M1180.69 246.369C1185.02 239.8 1189.85 233.573 1195.14 227.745C1234.8 248.727 1278.83 264.05 1321.41 265.323L1340.45 290.225C1343.12 293.234 1331.82 307.605 1315.21 322.331C1298.61 337.058 1283.01 346.487 1280.32 343.538L1142.99 209.595L1180.69 246.369Z" fill="#B2EF63"/>
<path d="M1144.52 196.701C1194.68 231.962 1259.55 263.548 1321.39 265.369L1340.44 290.271C1343.1 293.28 1331.8 307.651 1315.2 322.377C1298.59 337.104 1283.01 346.487 1280.32 343.538L1142.99 209.595C1141.59 208.022 1142.11 203.154 1144.52 196.701Z" fill="#DB2353"/>
<path d="M1280.32 343.538C1282.99 346.532 1298.61 337.043 1315.21 322.331C1331.81 307.62 1343.12 293.234 1340.45 290.225C1337.79 287.215 1322.17 296.705 1305.56 311.447C1288.95 326.189 1277.66 340.529 1280.32 343.538Z" fill="#900D13"/>
<path d="M1170.84 159.462C1193.19 139.638 1220.36 133.777 1223.95 137.825L1255.9 179.747L1303.08 241.542C1278.65 258.701 1256.24 278.566 1236.27 300.759L1180.64 246.506L1142.94 209.733C1139.39 205.542 1148.46 179.275 1170.84 159.462Z" fill="#FFE131"/>
<path d="M1278.99 259.775C1275.36 262.764 1271.72 265.879 1268.06 269.12C1256.86 278.982 1246.27 289.5 1236.32 300.621L1180.69 246.369C1185.02 239.8 1189.85 233.573 1195.14 227.745C1221.7 241.801 1250.25 253.323 1278.99 259.775Z" fill="#F9B50B"/>
<path d="M1180.69 246.369L1142.99 209.595C1139.39 205.542 1148.47 179.281 1170.84 159.462C1193.21 139.643 1220.36 133.777 1223.95 137.825L1255.9 179.747C1243.73 185.73 1229.01 195.733 1214.45 208.709C1199.89 221.685 1188.03 234.995 1180.69 246.369Z" fill="#B2EF63"/>
<path d="M1180.69 246.369L1142.99 209.595C1141.61 208.028 1142.11 203.154 1144.54 196.625C1160.73 208.062 1177.63 218.456 1195.14 227.745C1189.85 233.574 1185.02 239.8 1180.69 246.369Z" fill="#8ACD4C"/>
<g style="mix-blend-mode:overlay">
<path d="M1228.83 167.113C1229.14 167.211 1229.42 167.38 1229.66 167.607C1229.89 167.834 1230.07 168.112 1230.18 168.419C1230.29 168.727 1230.33 169.056 1230.29 169.38C1230.25 169.705 1230.14 170.015 1229.96 170.288C1229.78 170.561 1229.54 170.788 1229.25 170.952C1228.97 171.116 1228.65 171.212 1228.33 171.233C1228 171.254 1227.68 171.199 1227.37 171.072C1227.07 170.945 1226.81 170.751 1226.59 170.503C1226.24 170.136 1226.01 169.662 1225.95 169.154C1225.89 168.646 1226 168.132 1226.26 167.691C1226.83 166.825 1227.96 166.939 1228.83 167.113Z" fill="white"/>
<path d="M1214.25 165.469C1213.8 164.953 1213.51 164.314 1213.42 163.633C1213.33 162.952 1213.44 162.259 1213.74 161.642C1214.04 161.026 1214.52 160.513 1215.12 160.168C1215.71 159.824 1216.4 159.663 1217.08 159.707C1217.77 159.75 1218.42 159.996 1218.97 160.414C1219.52 160.831 1219.93 161.4 1220.15 162.051C1220.37 162.701 1220.4 163.402 1220.22 164.066C1220.04 164.73 1219.67 165.327 1219.16 165.782C1218.46 166.384 1217.56 166.688 1216.64 166.63C1215.72 166.571 1214.86 166.154 1214.25 165.469Z" fill="white"/>
<path d="M1217.52 152.856C1216.85 153.453 1216.02 153.837 1215.13 153.961C1214.24 154.085 1213.34 153.942 1212.53 153.552C1211.72 153.161 1211.05 152.539 1210.6 151.766C1210.14 150.992 1209.93 150.102 1209.98 149.207C1210.03 148.311 1210.35 147.452 1210.89 146.737C1211.44 146.023 1212.18 145.485 1213.02 145.192C1213.87 144.899 1214.79 144.864 1215.65 145.091C1216.52 145.319 1217.3 145.799 1217.9 146.47C1218.68 147.371 1219.08 148.546 1219.01 149.74C1218.94 150.935 1218.41 152.054 1217.52 152.856Z" fill="white"/>
<path d="M1201.56 154.53C1201.89 154.242 1202.33 154.098 1202.77 154.129C1203.2 154.161 1203.61 154.365 1203.9 154.697C1204.19 155.029 1204.33 155.462 1204.3 155.901C1204.27 156.339 1204.07 156.747 1203.73 157.035C1203.57 157.178 1203.38 157.287 1203.17 157.356C1202.97 157.425 1202.75 157.452 1202.53 157.437C1202.31 157.421 1202.1 157.363 1201.91 157.266C1201.71 157.168 1201.54 157.033 1201.4 156.869C1201.25 156.704 1201.14 156.513 1201.08 156.307C1201.01 156.1 1200.98 155.882 1200.99 155.665C1201.01 155.448 1201.07 155.236 1201.17 155.041C1201.26 154.847 1201.4 154.673 1201.56 154.53Z" fill="white"/>
<path d="M1261.11 204.322C1261.94 203.585 1262.98 203.112 1264.08 202.962C1265.18 202.813 1266.31 202.994 1267.31 203.482C1268.31 203.97 1269.14 204.744 1269.7 205.706C1270.26 206.667 1270.53 207.774 1270.46 208.885C1270.39 209.997 1270 211.064 1269.33 211.951C1268.65 212.838 1267.73 213.506 1266.68 213.871C1265.63 214.235 1264.49 214.28 1263.41 213.999C1262.34 213.718 1261.37 213.125 1260.63 212.293C1259.64 211.168 1259.14 209.701 1259.23 208.209C1259.32 206.717 1259.99 205.32 1261.11 204.322Z" fill="white"/>
<path d="M1254.98 209.369C1255.14 209.005 1255.17 208.592 1255.05 208.211C1254.93 207.831 1254.67 207.508 1254.32 207.305C1254.03 207.137 1253.69 207.075 1253.36 207.128C1253.03 207.181 1252.72 207.346 1252.49 207.597C1252.32 207.728 1252.17 207.893 1252.06 208.083C1251.95 208.273 1251.88 208.483 1251.85 208.701C1251.83 208.919 1251.85 209.14 1251.91 209.351C1251.97 209.561 1252.07 209.758 1252.21 209.927C1252.4 210.145 1252.64 210.308 1252.91 210.401C1253.18 210.494 1253.48 210.513 1253.76 210.456C1254.04 210.4 1254.3 210.269 1254.52 210.078C1254.73 209.887 1254.89 209.642 1254.98 209.369ZM1252.38 207.815C1252.35 207.883 1252.32 207.955 1252.3 208.029C1252.3 208.029 1252.35 207.907 1252.38 207.83L1252.38 207.815Z" fill="white"/>
<path d="M1264.15 223.135C1264.64 222.705 1265.27 222.484 1265.92 222.522C1266.57 222.56 1267.17 222.853 1267.6 223.337C1268.03 223.821 1268.25 224.456 1268.21 225.102C1268.18 225.749 1267.88 226.354 1267.4 226.784C1267.16 226.997 1266.88 227.161 1266.58 227.266C1266.27 227.371 1265.95 227.416 1265.63 227.397C1265.31 227.378 1265 227.297 1264.71 227.157C1264.42 227.017 1264.16 226.822 1263.95 226.582C1263.74 226.342 1263.57 226.063 1263.47 225.76C1263.36 225.457 1263.32 225.137 1263.34 224.817C1263.36 224.496 1263.44 224.183 1263.58 223.895C1263.72 223.606 1263.91 223.348 1264.15 223.135Z" fill="white"/>
</g>
</g>
</g>
<defs>
<filter id="filter0_d_419_29456" x="-65.2036" y="16.9246" width="209.955" height="230.956" filterUnits="userSpaceOnUse" color-interpolation-filters="sRGB">
<feFlood flood-opacity="0" result="BackgroundImageFix"/>
<feColorMatrix in="SourceAlpha" type="matrix" values="0 0 0 0 0 0 0 0 0 0 0 0 0 0 0 0 0 0 127 0" result="hardAlpha"/>
<feOffset dx="-6" dy="7"/>
<feComposite in2="hardAlpha" operator="out"/>
<feColorMatrix type="matrix" values="0 0 0 0 0 0 0 0 0 0 0 0 0 0 0 0 0 0 0.25 0"/>
<feBlend mode="normal" in2="BackgroundImageFix" result="effect1_dropShadow_419_29456"/>
<feBlend mode="normal" in="SourceGraphic" in2="effect1_dropShadow_419_29456" result="shape"/>
</filter>
<filter id="filter1_d_419_29456" x="-342.072" y="119.625" width="1225.82" height="404.365" filterUnits="userSpaceOnUse" color-interpolation-filters="sRGB">
<feFlood flood-opacity="0" result="BackgroundImageFix"/>
<feColorMatrix in="SourceAlpha" type="matrix" values="0 0 0 0 0 0 0 0 0 0 0 0 0 0 0 0 0 0 127 0" result="hardAlpha"/>
<feOffset dx="-17" dy="7"/>
<feComposite in2="hardAlpha" operator="out"/>
<feColorMatrix type="matrix" values="0 0 0 0 0 0 0 0 0 0 0 0 0 0 0 0 0 0 0.25 0"/>
<feBlend mode="normal" in2="BackgroundImageFix" result="effect1_dropShadow_419_29456"/>
<feBlend mode="normal" in="SourceGraphic" in2="effect1_dropShadow_419_29456" result="shape"/>
</filter>
<filter id="filter2_d_419_29456" x="780.046" y="24.8611" width="398.171" height="360.361" filterUnits="userSpaceOnUse" color-interpolation-filters="sRGB">
<feFlood flood-opacity="0" result="BackgroundImageFix"/>
<feColorMatrix in="SourceAlpha" type="matrix" values="0 0 0 0 0 0 0 0 0 0 0 0 0 0 0 0 0 0 127 0" result="hardAlpha"/>
<feOffset dx="-14" dy="7"/>
<feComposite in2="hardAlpha" operator="out"/>
<feColorMatrix type="matrix" values="0 0 0 0 0 0 0 0 0 0 0 0 0 0 0 0 0 0 0.25 0"/>
<feBlend mode="normal" in2="BackgroundImageFix" result="effect1_dropShadow_419_29456"/>
<feBlend mode="normal" in="SourceGraphic" in2="effect1_dropShadow_419_29456" result="shape"/>
</filter>
<filter id="filter3_d_419_29456" x="1136.19" y="136.617" width="230.226" height="251.038" filterUnits="userSpaceOnUse" color-interpolation-filters="sRGB">
<feFlood flood-opacity="0" result="BackgroundImageFix"/>
<feColorMatrix in="SourceAlpha" type="matrix" values="0 0 0 0 0 0 0 0 0 0 0 0 0 0 0 0 0 0 127 0" result="hardAlpha"/>
<feOffset dx="-6" dy="7"/>
<feComposite in2="hardAlpha" operator="out"/>
<feColorMatrix type="matrix" values="0 0 0 0 0 0 0 0 0 0 0 0 0 0 0 0 0 0 0.25 0"/>
<feBlend mode="normal" in2="BackgroundImageFix" result="effect1_dropShadow_419_29456"/>
<feBlend mode="normal" in="SourceGraphic" in2="effect1_dropShadow_419_29456" result="shape"/>
</filter>
<clipPath id="clip0_419_29456">
<rect width="1279" height="527" fill="white"/>
</clipPath>
</defs>
</svg>
