<svg width="314" height="269" viewBox="0 0 314 269" fill="none" xmlns="http://www.w3.org/2000/svg">
<g filter="url(#filter0_d_406_24743)">
<path d="M33.9919 90.5954C30.3914 86.5423 39.4731 60.281 61.8397 40.4621C84.2063 20.6432 111.364 14.7772 114.95 18.8248L231.454 171.225C234.117 174.234 222.817 188.605 206.212 203.331C189.607 218.058 174.007 227.487 171.321 224.538L33.9919 90.5954Z" fill="#F03C69"/>
<path d="M71.6903 127.368C76.0225 120.8 80.8532 114.573 86.1397 108.745C125.797 129.727 169.832 145.05 212.406 146.323L231.453 171.225C234.117 174.234 222.816 188.605 206.212 203.331C189.607 218.058 174.007 227.486 171.321 224.538L33.9917 90.5952L71.6903 127.368Z" fill="#B2EF63"/>
<path d="M35.515 77.7013C85.6789 112.962 150.551 144.548 212.391 146.369L231.437 171.271C234.101 174.28 222.8 188.651 206.196 203.377C189.591 218.104 174.007 227.487 171.321 224.538L33.9923 90.5954C32.59 89.0223 33.1123 84.1545 35.515 77.7013Z" fill="#DB2353"/>
<path d="M171.321 224.538C173.99 227.532 189.612 218.043 206.211 203.331C222.811 188.62 234.117 174.234 231.453 171.225C228.789 168.215 213.167 177.705 196.557 192.447C179.947 207.189 168.657 221.529 171.321 224.538Z" fill="#900D13"/>
<path d="M198.58 200.368C196.402 202.402 194.47 204.685 192.825 207.17C192.825 207.17 221.953 246.958 228.455 255.762C234.957 264.566 244.333 262.048 249.324 257.611C254.316 253.174 257.922 244.185 249.942 236.662C241.963 229.14 206.057 195.495 206.057 195.495C203.384 196.823 200.875 198.459 198.58 200.368Z" fill="#CE7821"/>
<path d="M201.384 197.889C199.208 199.917 197.278 202.196 195.635 204.677C195.635 204.677 224.764 244.464 231.266 253.268C237.767 262.072 247.143 259.554 252.129 255.133C257.115 250.711 260.717 241.686 252.747 234.184C244.777 226.682 208.791 192.973 208.791 192.973C206.141 194.321 203.655 195.97 201.384 197.889Z" fill="#FFCA5D"/>
<path d="M61.8396 40.462C84.1908 20.6376 111.364 14.7771 114.95 18.8246L146.9 60.7467L194.079 122.542C169.65 139.701 147.239 159.566 127.272 181.759L71.641 127.506L33.9424 90.7328C30.3913 86.5422 39.4577 60.2754 61.8396 40.462Z" fill="#FFE131"/>
<path d="M169.987 140.775C166.36 143.764 162.717 146.879 159.058 150.12C147.863 159.982 137.266 170.5 127.322 181.621L71.6904 127.369C76.0225 120.8 80.8532 114.573 86.1397 108.745C112.703 122.801 141.246 134.323 169.987 140.775Z" fill="#F9B50B"/>
<path d="M71.6905 127.369L33.9919 90.5954C30.3914 86.5423 39.4731 60.281 61.8397 40.4621C84.2063 20.6432 111.364 14.7772 114.95 18.8248L146.901 60.7469C134.728 66.7299 120.009 76.733 105.448 89.7088C90.8861 102.685 79.0343 115.995 71.6905 127.369Z" fill="#B2EF63"/>
<path d="M71.6907 127.369L33.9921 90.5955C32.6051 89.0279 33.1122 84.1546 35.5423 77.625C51.7307 89.0617 68.6308 99.4562 86.14 108.745C80.8535 114.574 76.0229 120.8 71.6907 127.369Z" fill="#8ACD4C"/>
<g style="mix-blend-mode:overlay">
<path d="M119.827 48.1128C120.139 48.211 120.423 48.3801 120.658 48.6069C120.893 48.8336 121.073 49.1118 121.182 49.4196C121.291 49.7274 121.328 50.0563 121.288 50.3805C121.249 50.7047 121.135 51.0154 120.955 51.2881C120.775 51.5608 120.535 51.788 120.252 51.952C119.97 52.1159 119.653 52.2121 119.327 52.233C119.001 52.2538 118.675 52.1988 118.374 52.0721C118.073 51.9455 117.805 51.7507 117.592 51.5032C117.236 51.1357 117.011 50.6617 116.95 50.1537C116.889 49.6457 116.997 49.1319 117.256 48.6908C117.825 47.8255 118.958 47.9388 119.827 48.1128Z" fill="white"/>
<path d="M105.251 46.469C104.797 45.9529 104.507 45.3139 104.416 44.6328C104.326 43.9517 104.439 43.2591 104.742 42.6424C105.045 42.0257 105.524 41.5127 106.119 41.1682C106.713 40.8237 107.396 40.6631 108.082 40.7068C108.768 40.7505 109.425 40.9964 109.971 41.4136C110.517 41.8308 110.927 42.4004 111.149 43.0505C111.372 43.7007 111.396 44.4021 111.22 45.0662C111.044 45.7303 110.675 46.3273 110.159 46.7817C109.464 47.3838 108.559 47.6884 107.641 47.6299C106.723 47.5714 105.864 47.1545 105.251 46.469Z" fill="white"/>
<path d="M108.519 33.8565C107.849 34.4531 107.018 34.8376 106.13 34.9614C105.242 35.0852 104.337 34.9427 103.53 34.5519C102.723 34.1611 102.05 33.5396 101.596 32.7661C101.143 31.9926 100.929 31.1019 100.981 30.2068C101.034 29.3117 101.352 28.4524 101.893 27.7377C102.435 27.023 103.176 26.4851 104.024 26.192C104.871 25.899 105.787 25.864 106.654 26.0915C107.521 26.319 108.302 26.7988 108.896 27.47C109.683 28.3714 110.085 29.5459 110.014 30.7405C109.943 31.935 109.406 33.0541 108.519 33.8565Z" fill="white"/>
<path d="M92.5622 35.5304C92.8944 35.2424 93.3274 35.0982 93.7659 35.1294C94.2045 35.1606 94.6126 35.3648 94.9006 35.697C95.1887 36.0292 95.3329 36.4622 95.3017 36.9007C95.2705 37.3393 95.0663 37.7475 94.7341 38.0355C94.5697 38.1781 94.3787 38.2869 94.1721 38.3557C93.9656 38.4245 93.7476 38.452 93.5304 38.4365C93.3133 38.4211 93.1013 38.363 92.9066 38.2656C92.7119 38.1682 92.5382 38.0334 92.3956 37.8689C92.253 37.7045 92.1442 37.5135 92.0754 37.307C92.0066 37.1004 91.9791 36.8823 91.9946 36.6652C92.01 36.448 92.0681 36.2361 92.1655 36.0414C92.2629 35.8467 92.3977 35.6731 92.5622 35.5304Z" fill="white"/>
<path d="M152.107 85.3216C152.942 84.5848 153.976 84.1119 155.08 83.9624C156.183 83.813 157.306 83.9939 158.307 84.4822C159.307 84.9704 160.141 85.7442 160.702 86.7059C161.264 87.6676 161.528 88.774 161.461 89.8855C161.394 90.997 160.999 92.0637 160.326 92.951C159.653 93.8383 158.733 94.5064 157.681 94.871C156.629 95.2355 155.492 95.2802 154.415 94.9994C153.337 94.7185 152.367 94.1247 151.627 93.293C150.642 92.168 150.141 90.7007 150.231 89.2087C150.321 87.7168 150.995 86.3203 152.107 85.3216Z" fill="white"/>
<path d="M145.981 90.3694C146.145 90.0048 146.169 89.5926 146.047 89.2117C145.926 88.8307 145.669 88.5079 145.325 88.3049C145.032 88.1375 144.691 88.0752 144.358 88.1283C144.025 88.1814 143.72 88.3467 143.494 88.5969C143.319 88.7281 143.171 88.8937 143.061 89.0835C142.951 89.2734 142.881 89.4835 142.854 89.7014C142.827 89.9192 142.845 90.1402 142.906 90.3509C142.968 90.5616 143.071 90.7578 143.21 90.9275C143.398 91.1449 143.641 91.3083 143.913 91.4013C144.185 91.4942 144.476 91.5133 144.758 91.4565C145.04 91.3998 145.302 91.2692 145.517 91.0782C145.731 90.8872 145.892 90.6426 145.981 90.3694ZM143.382 88.8152C143.349 88.8837 143.323 88.9554 143.305 89.0291C143.305 89.0291 143.349 88.9069 143.376 88.8304L143.382 88.8152Z" fill="white"/>
<path d="M155.154 104.135C155.638 103.705 156.273 103.484 156.919 103.522C157.566 103.56 158.171 103.853 158.601 104.337C159.031 104.821 159.252 105.456 159.214 106.103C159.176 106.749 158.883 107.354 158.399 107.784C158.159 107.998 157.88 108.161 157.577 108.266C157.274 108.372 156.953 108.416 156.633 108.397C156.313 108.379 156 108.297 155.711 108.157C155.423 108.017 155.165 107.822 154.951 107.582C154.738 107.343 154.575 107.063 154.469 106.76C154.364 106.458 154.32 106.137 154.339 105.817C154.357 105.497 154.439 105.183 154.579 104.895C154.719 104.606 154.914 104.348 155.154 104.135Z" fill="white"/>
<path d="M190.917 134.572C191.05 134.131 191.305 133.737 191.651 133.435C191.998 133.132 192.422 132.933 192.876 132.86C193.331 132.787 193.796 132.844 194.22 133.023C194.644 133.202 195.008 133.497 195.272 133.874C195.536 134.251 195.689 134.694 195.713 135.154C195.737 135.613 195.631 136.07 195.408 136.472C195.184 136.874 194.852 137.205 194.45 137.428C194.047 137.65 193.59 137.755 193.131 137.73C192.761 137.707 192.401 137.6 192.078 137.419C191.755 137.238 191.477 136.986 191.264 136.683C191.052 136.38 190.91 136.032 190.85 135.667C190.79 135.301 190.813 134.927 190.917 134.572Z" fill="white"/>
</g>
</g>
<defs>
<filter id="filter0_d_406_24743" x="27.1948" y="17.6171" width="230.226" height="251.038" filterUnits="userSpaceOnUse" color-interpolation-filters="sRGB">
<feFlood flood-opacity="0" result="BackgroundImageFix"/>
<feColorMatrix in="SourceAlpha" type="matrix" values="0 0 0 0 0 0 0 0 0 0 0 0 0 0 0 0 0 0 127 0" result="hardAlpha"/>
<feOffset dx="-6" dy="7"/>
<feComposite in2="hardAlpha" operator="out"/>
<feColorMatrix type="matrix" values="0 0 0 0 0 0 0 0 0 0 0 0 0 0 0 0 0 0 0.25 0"/>
<feBlend mode="normal" in2="BackgroundImageFix" result="effect1_dropShadow_406_24743"/>
<feBlend mode="normal" in="SourceGraphic" in2="effect1_dropShadow_406_24743" result="shape"/>
</filter>
</defs>
</svg>
