<svg width="185" height="172" viewBox="0 0 185 172" fill="none" xmlns="http://www.w3.org/2000/svg">
<path d="M38.3751 41.065L45.8564 17.8933L85.8803 30.8157L78.3989 53.9874L38.3751 41.065Z" fill="#737373"/>
<path d="M35.4696 107.7L53.1868 52.8256L59.5064 54.8659L41.7891 109.741C40.7812 109.26 40.2773 109.02 38.6974 108.51C37.6441 108.17 36.5682 107.9 35.4696 107.7Z" fill="#737373"/>
<path d="M31.7371 113.978C33.359 113.997 35.042 114.308 36.657 114.829C38.272 115.351 39.819 116.083 41.1462 117.015C43.2604 118.512 46.6233 122.506 49.1187 126.064C50.8215 128.475 51.9118 130.261 52.6341 131.386L39.6097 171.726L0.990241 159.257L14.0146 118.917C15.2584 118.427 17.1875 117.615 19.9785 116.655C24.0836 115.228 29.1467 113.955 31.7371 113.978Z" fill="#737373"/>
<path d="M117.86 7.07613C109.353 8.30646 102.916 14.061 98.2703 21.3234C93.6283 28.5853 90.531 37.5323 88.3525 46.2347C85.0595 59.4224 83.9232 72.1863 83.5643 77.6434L90.2937 76.6702C90.7256 70.8671 91.8763 59.5176 94.7947 47.8379C96.8653 39.5239 99.8426 31.1906 103.85 24.9003C107.897 18.6041 112.713 14.5304 118.811 13.6485C124.909 12.7667 130.681 15.3091 136.31 20.206C141.975 25.0975 147.184 32.247 151.533 39.6327C157.619 50.0102 161.941 60.5682 163.996 66.0117L170.751 65.0348C168.853 59.9041 164.147 47.985 157.235 36.2732C152.688 28.5435 147.175 20.8415 140.692 15.1886C134.171 9.54094 126.368 5.84579 117.86 7.07613ZM84.6462 84.1968L85.4911 90.0389L172.4 77.4705L171.555 71.6283L84.6462 84.1968ZM92.8935 95.6783L114.302 168.627L167.034 161.001L166.888 84.9775L92.8935 95.6783Z" fill="#737373"/>
</svg>
