<svg width="1274" height="728" viewBox="0 0 1274 728" fill="none" xmlns="http://www.w3.org/2000/svg">
<g filter="url(#filter0_d_406_24707)">
<path d="M64.4695 454.168C64.4695 454.168 39.4029 493.451 45.852 504.142C45.852 504.142 392.678 596.393 714.261 536.665C1035.84 476.937 1243.08 284.809 1239.7 263.027C1236.33 241.245 978.468 124.794 654.683 169.931C330.898 215.068 31.0762 412.577 31.0762 412.577C28.334 424.887 64.4695 454.168 64.4695 454.168Z" fill="#FECF29"/>
<path d="M707.026 495.917C1029.15 437.689 1242.35 279.554 1239.59 262.609C1236.84 245.665 984.492 163.279 660.525 210.227C347.967 255.496 52.9581 411.121 32.5362 422.041C40.8395 435.676 63.2202 453.915 63.2202 453.915C63.2202 453.915 47.6323 478.46 44.232 494.03C67.1224 498.038 396.237 552.077 707.026 495.917Z" fill="#FFE131"/>
<path d="M692.167 404.77C397.36 452.69 154.329 468.512 149.687 440.022C145.045 411.532 380.415 349.553 675.384 301.624C970.353 253.696 1239.67 262.791 1239.67 262.791C1239.67 262.791 987.124 356.804 692.167 404.77Z" fill="#FDF258"/>
<path d="M235.632 300.835L323.865 549.493C331.119 550.203 338.398 550.865 345.835 551.519L253.825 292.371C247.659 295.21 241.603 298.015 235.632 300.835Z" fill="#F7F6F7"/>
<path d="M401.057 233.904C348.001 252.504 298.184 273.037 253.385 293.35L345.499 551.665C402.211 556.03 459.114 557.541 515.992 556.192L401.057 233.904Z" fill="#56C5F0"/>
<path d="M537.717 556.219L420.004 226.43C413.388 228.663 406.859 230.912 400.342 233.198L515.884 556.99C523.164 556.788 530.422 556.509 537.717 556.219Z" fill="#F7F6F7"/>
<path d="M312.758 519.888L323.361 549.654C330.781 550.311 338.227 550.919 345.835 551.519L334.752 520.455C327.452 520.325 320.121 520.136 312.758 519.888Z" fill="#E7E5E8"/>
<path d="M253.521 292.464C247.442 295.306 241.507 298.104 235.657 300.918L244.794 326.877C250.8 324.441 256.889 322.022 263.099 319.608L253.521 292.464Z" fill="#E7E5E8"/>
<path d="M265.479 387.363L288.915 453.322C295.846 452.963 303 452.564 310.376 452.125L285.36 381.819C278.511 383.665 271.876 385.529 265.479 387.363Z" fill="white"/>
<path d="M412.638 267.881L400.584 234.049C347.698 252.605 298.046 273.105 253.399 293.394L262.776 319.699C308.418 302.121 358.968 284.281 412.638 267.881Z" fill="#00A1E9"/>
<path d="M334.951 521.442L345.917 552.12C402.483 556.306 459.247 557.665 515.992 556.192L502.798 519.185C444.037 522.348 387.313 522.726 334.951 521.442Z" fill="#00A1E9"/>
<path d="M441.907 345.596C382.629 358.225 329.728 370.826 285.801 382.808L310.273 451.328C357.321 448.178 412.698 442.846 473.983 435.418L441.907 345.596Z" fill="#AFDEF8"/>
<path d="M432.275 261.093L419.92 226.456C413.332 228.68 406.831 230.919 400.342 233.197L412.405 267.015C418.987 265.04 425.606 263.054 432.275 261.093Z" fill="#E7E5E8"/>
<path d="M523.955 517.424C516.843 517.791 509.78 518.185 502.768 518.48L516.328 556.748C523.436 556.634 530.605 556.587 537.717 556.219L523.955 517.424Z" fill="#E7E5E8"/>
<path d="M495.24 433.917L462.017 340.85C455.045 342.278 448.163 343.719 441.331 345.187L473.952 436.564C480.947 435.671 488.043 434.789 495.24 433.917Z" fill="white"/>
</g>
<defs>
<filter id="filter0_d_406_24707" x="13.9277" y="159.626" width="1225.82" height="404.365" filterUnits="userSpaceOnUse" color-interpolation-filters="sRGB">
<feFlood flood-opacity="0" result="BackgroundImageFix"/>
<feColorMatrix in="SourceAlpha" type="matrix" values="0 0 0 0 0 0 0 0 0 0 0 0 0 0 0 0 0 0 127 0" result="hardAlpha"/>
<feOffset dx="-17" dy="7"/>
<feComposite in2="hardAlpha" operator="out"/>
<feColorMatrix type="matrix" values="0 0 0 0 0 0 0 0 0 0 0 0 0 0 0 0 0 0 0.25 0"/>
<feBlend mode="normal" in2="BackgroundImageFix" result="effect1_dropShadow_406_24707"/>
<feBlend mode="normal" in="SourceGraphic" in2="effect1_dropShadow_406_24707" result="shape"/>
</filter>
</defs>
</svg>
