<svg width="1191" height="161" viewBox="0 0 1191 161" fill="none" xmlns="http://www.w3.org/2000/svg">
<path d="M0.00274658 160.575V141.858C7.17462 141.858 13.2979 141.138 18.3726 139.698C23.4474 138.258 28.5765 136.697 33.76 135.014C38.9435 133.331 44.6959 131.811 51.017 130.455C57.3382 129.098 65.064 128.42 74.1945 128.42C83.5922 128.42 91.3229 129.101 97.3869 130.464C103.451 131.827 109.075 133.344 114.258 135.014C119.442 136.684 124.635 138.245 129.838 139.698C135.042 141.15 141.224 141.87 148.386 141.858C155.548 141.845 161.731 141.125 166.934 139.698C172.138 138.271 177.331 136.71 182.515 135.014C187.698 133.318 193.386 131.798 199.579 130.455C205.771 129.111 213.438 128.432 222.578 128.42C231.976 128.42 239.766 129.101 245.949 130.464C252.131 131.827 257.819 133.344 263.013 135.014C268.206 136.684 273.399 138.245 278.593 139.698C283.786 141.15 289.845 141.87 296.77 141.858V160.575C287.372 160.575 279.518 159.855 273.207 158.415C266.895 156.975 261.148 155.417 255.964 153.74C250.781 152.064 245.711 150.544 240.755 149.181C235.799 147.818 229.74 147.137 222.578 147.137C215.654 147.137 209.654 147.818 204.579 149.181C199.504 150.544 194.435 152.064 189.37 153.74C184.305 155.417 178.617 156.975 172.306 158.415C165.995 159.855 158.021 160.575 148.386 160.575C138.751 160.575 130.773 159.855 124.452 158.415C118.131 156.975 112.443 155.417 107.388 153.74C102.333 152.064 97.3275 150.544 92.3715 149.181C87.4155 147.818 81.3565 147.137 74.1945 147.137C67.27 147.137 61.2703 147.818 56.1956 149.181C51.1209 150.544 45.9918 152.064 40.8082 153.74C35.6247 155.417 29.8724 156.975 23.5512 158.415C17.2301 159.855 9.38059 160.575 0.00274658 160.575ZM0.00274658 117.861V99.1443C7.17462 99.1443 13.293 98.4244 18.3578 96.9847C23.4226 95.5449 28.5567 93.9867 33.76 92.3102C38.9633 90.6337 44.7107 89.1139 51.0022 87.7509C57.2936 86.3879 65.0244 85.7064 74.1945 85.7064C83.5922 85.7064 91.3229 86.3879 97.3869 87.7509C103.451 89.1139 109.075 90.6337 114.258 92.3102C119.442 93.9867 124.635 95.5449 129.838 96.9847C135.042 98.4244 141.224 99.1443 148.386 99.1443C155.548 99.1443 161.731 98.4244 166.934 96.9847C172.138 95.5449 177.331 93.9867 182.515 92.3102C187.698 90.6337 193.386 89.1139 199.579 87.7509C205.771 86.3879 213.438 85.7064 222.578 85.7064C231.976 85.7064 239.766 86.3879 245.949 87.7509C252.131 89.1139 257.819 90.6337 263.013 92.3102C268.206 93.9867 273.399 95.5449 278.593 96.9847C283.786 98.4244 289.845 99.1443 296.77 99.1443V117.861C287.372 117.861 279.518 117.141 273.207 115.702C266.895 114.262 261.148 112.701 255.964 111.018C250.781 109.335 245.711 107.818 240.755 106.468C235.799 105.118 229.74 104.436 222.578 104.423C215.416 104.411 209.298 105.092 204.223 106.468C199.148 107.844 194.074 109.363 188.999 111.027C183.924 112.691 178.3 114.249 172.128 115.702C165.955 117.154 158.041 117.874 148.386 117.861C138.732 117.849 130.758 117.129 124.467 115.702C118.175 114.275 112.487 112.713 107.403 111.018C102.318 109.322 97.3078 107.805 92.3715 106.468C87.4353 105.131 81.3763 104.449 74.1945 104.423C67.27 104.423 61.2753 105.105 56.2104 106.468C51.1456 107.831 46.0115 109.351 40.8082 111.027C35.6049 112.704 29.8575 114.262 23.5661 115.702C17.2746 117.141 9.42016 117.861 0.00274658 117.861ZM0.00274658 75.1481V56.4311C7.17462 56.4311 13.2979 55.7112 18.3726 54.2714C23.4474 52.8317 28.5765 51.2703 33.76 49.5874C38.9435 47.9045 44.6959 46.3847 51.017 45.0281C57.3382 43.6715 65.064 42.9932 74.1945 42.9932C83.5922 42.9932 91.3229 43.6747 97.3869 45.0377C103.451 46.4007 109.075 47.9173 114.258 49.5874C119.442 51.2575 124.635 52.8189 129.838 54.2714C135.042 55.724 141.224 56.4439 148.386 56.4311C155.548 56.4183 161.731 55.6984 166.934 54.2714C172.138 52.8445 177.331 51.2831 182.515 49.5874C187.698 47.8917 193.386 46.3719 199.579 45.0281C205.771 43.6843 213.438 43.006 222.578 42.9932C231.976 42.9932 239.766 43.6747 245.949 45.0377C252.131 46.4007 257.819 47.9173 263.013 49.5874C268.206 51.2575 273.399 52.8189 278.593 54.2714C283.786 55.724 289.845 56.4439 296.77 56.4311V75.1481C287.372 75.1481 279.518 74.4282 273.207 72.9885C266.895 71.5487 261.148 69.9905 255.964 68.314C250.781 66.6375 245.711 65.1177 240.755 63.7547C235.799 62.3917 229.74 61.7103 222.578 61.7103C215.654 61.7103 209.654 62.3917 204.579 63.7547C199.504 65.1177 194.435 66.6375 189.37 68.314C184.305 69.9905 178.617 71.5487 172.306 72.9885C165.995 74.4282 158.021 75.1481 148.386 75.1481C138.751 75.1481 130.773 74.4282 124.452 72.9885C118.131 71.5487 112.443 69.9905 107.388 68.314C102.333 66.6375 97.3275 65.1177 92.3715 63.7547C87.4155 62.3917 81.3565 61.7103 74.1945 61.7103C67.27 61.7103 61.2703 62.3917 56.1956 63.7547C51.1209 65.1177 45.9918 66.6375 40.8082 68.314C35.6247 69.9905 29.8724 71.5487 23.5512 72.9885C17.2301 74.4282 9.38059 75.1481 0.00274658 75.1481ZM0.00274658 32.4349V13.7179C7.17462 13.7179 13.293 12.998 18.3578 11.5582C23.4226 10.1185 28.5567 8.56031 33.76 6.88378C38.9633 5.20724 44.7107 3.68749 51.0022 2.3245C57.2936 0.961519 65.0244 0.280029 74.1945 0.280029C83.5922 0.280029 91.3229 0.961519 97.3869 2.3245C103.451 3.68749 109.075 5.20724 114.258 6.88378C119.442 8.56031 124.635 10.1185 129.838 11.5582C135.042 12.998 141.224 13.7179 148.386 13.7179C155.548 13.7179 161.731 12.998 166.934 11.5582C172.138 10.1185 177.331 8.55711 182.515 6.87418C187.698 5.19125 193.386 3.67469 199.579 2.3245C205.771 0.974317 213.438 0.292827 222.578 0.280029C231.976 0.280029 239.766 0.961519 245.949 2.3245C252.131 3.68749 257.819 5.20724 263.013 6.88378C268.206 8.56031 273.399 10.1185 278.593 11.5582C283.786 12.998 289.845 13.7179 296.77 13.7179V32.4349C287.372 32.4349 279.518 31.715 273.207 30.2753C266.895 28.8355 261.148 27.2773 255.964 25.6008C250.781 23.9243 245.711 22.4045 240.755 21.0415C235.799 19.6785 229.74 18.9971 222.578 18.9971C215.654 18.9971 209.654 19.6785 204.579 21.0415C199.504 22.4045 194.435 23.9243 189.37 25.6008C184.305 27.2773 178.617 28.8355 172.306 30.2753C165.995 31.715 158.021 32.4349 148.386 32.4349C138.751 32.4349 130.773 31.715 124.452 30.2753C118.131 28.8355 112.443 27.2741 107.388 25.5912C102.333 23.9083 97.3275 22.3917 92.3715 21.0415C87.4155 19.6913 81.3565 19.0098 74.1945 18.9971C67.27 18.9971 61.2703 19.6785 56.1956 21.0415C51.1209 22.4045 45.9918 23.9243 40.8082 25.6008C35.6247 27.2773 29.8724 28.8355 23.5512 30.2753C17.2301 31.715 9.38059 32.4349 0.00274658 32.4349Z" fill="black"/>
<path d="M148.992 160.575V141.858C156.164 141.858 162.287 141.138 167.362 139.698C172.437 138.258 177.566 136.697 182.749 135.014C187.933 133.331 193.685 131.811 200.006 130.455C206.327 129.098 214.053 128.42 223.184 128.42C232.581 128.42 240.312 129.101 246.376 130.464C252.44 131.827 258.064 133.344 263.247 135.014C268.431 136.684 273.624 138.245 278.828 139.698C284.031 141.15 290.214 141.87 297.376 141.858C304.538 141.845 310.72 141.125 315.923 139.698C321.127 138.271 326.32 136.71 331.504 135.014C336.687 133.318 342.375 131.798 348.568 130.455C354.76 129.111 362.427 128.432 371.567 128.42C380.965 128.42 388.755 129.101 394.938 130.464C401.12 131.827 406.808 133.344 412.002 135.014C417.195 136.684 422.389 138.245 427.582 139.698C432.776 141.15 438.835 141.87 445.759 141.858V160.575C436.361 160.575 428.507 159.855 422.196 158.415C415.885 156.975 410.137 155.417 404.954 153.74C399.77 152.064 394.7 150.544 389.744 149.181C384.788 147.818 378.729 147.137 371.567 147.137C364.643 147.137 358.643 147.818 353.568 149.181C348.494 150.544 343.424 152.064 338.359 153.74C333.294 155.417 327.606 156.975 321.295 158.415C314.984 159.855 307.011 160.575 297.376 160.575C287.74 160.575 279.762 159.855 273.441 158.415C267.12 156.975 261.432 155.417 256.377 153.74C251.322 152.064 246.317 150.544 241.361 149.181C236.405 147.818 230.346 147.137 223.184 147.137C216.259 147.137 210.26 147.818 205.185 149.181C200.11 150.544 194.981 152.064 189.797 153.74C184.614 155.417 178.862 156.975 172.54 158.415C166.219 159.855 158.37 160.575 148.992 160.575ZM148.992 117.861V99.1443C156.164 99.1443 162.282 98.4244 167.347 96.9847C172.412 95.5449 177.546 93.9867 182.749 92.3102C187.953 90.6337 193.7 89.1139 199.991 87.7509C206.283 86.3879 214.014 85.7064 223.184 85.7064C232.581 85.7064 240.312 86.3879 246.376 87.7509C252.44 89.1139 258.064 90.6337 263.247 92.3102C268.431 93.9867 273.624 95.5449 278.828 96.9847C284.031 98.4244 290.214 99.1443 297.376 99.1443C304.538 99.1443 310.72 98.4244 315.923 96.9847C321.127 95.5449 326.32 93.9867 331.504 92.3102C336.687 90.6337 342.375 89.1139 348.568 87.7509C354.76 86.3879 362.427 85.7064 371.567 85.7064C380.965 85.7064 388.755 86.3879 394.938 87.7509C401.12 89.1139 406.808 90.6337 412.002 92.3102C417.195 93.9867 422.389 95.5449 427.582 96.9847C432.776 98.4244 438.835 99.1443 445.759 99.1443V117.861C436.361 117.861 428.507 117.141 422.196 115.702C415.885 114.262 410.137 112.701 404.954 111.018C399.77 109.335 394.7 107.818 389.744 106.468C384.788 105.118 378.729 104.436 371.567 104.423C364.405 104.411 358.287 105.092 353.212 106.468C348.138 107.844 343.063 109.363 337.988 111.027C332.913 112.691 327.29 114.249 321.117 115.702C314.944 117.154 307.03 117.874 297.376 117.861C287.721 117.849 279.748 117.129 273.456 115.702C267.165 114.275 261.477 112.713 256.392 111.018C251.307 109.322 246.297 107.805 241.361 106.468C236.425 105.131 230.365 104.449 223.184 104.423C216.259 104.423 210.264 105.105 205.2 106.468C200.135 107.831 195.001 109.351 189.797 111.027C184.594 112.704 178.847 114.262 172.555 115.702C166.264 117.141 158.409 117.861 148.992 117.861ZM148.992 75.1481V56.4311C156.164 56.4311 162.287 55.7112 167.362 54.2714C172.437 52.8317 177.566 51.2703 182.749 49.5874C187.933 47.9045 193.685 46.3847 200.006 45.0281C206.327 43.6715 214.053 42.9932 223.184 42.9932C232.581 42.9932 240.312 43.6747 246.376 45.0377C252.44 46.4007 258.064 47.9173 263.247 49.5874C268.431 51.2575 273.624 52.8189 278.828 54.2714C284.031 55.724 290.214 56.4439 297.376 56.4311C304.538 56.4183 310.72 55.6984 315.923 54.2714C321.127 52.8445 326.32 51.2831 331.504 49.5874C336.687 47.8917 342.375 46.3719 348.568 45.0281C354.76 43.6843 362.427 43.006 371.567 42.9932C380.965 42.9932 388.755 43.6747 394.938 45.0377C401.12 46.4007 406.808 47.9173 412.002 49.5874C417.195 51.2575 422.389 52.8189 427.582 54.2714C432.776 55.724 438.835 56.4439 445.759 56.4311V75.1481C436.361 75.1481 428.507 74.4282 422.196 72.9885C415.885 71.5487 410.137 69.9905 404.954 68.314C399.77 66.6375 394.7 65.1177 389.744 63.7547C384.788 62.3917 378.729 61.7103 371.567 61.7103C364.643 61.7103 358.643 62.3917 353.568 63.7547C348.494 65.1177 343.424 66.6375 338.359 68.314C333.294 69.9905 327.606 71.5487 321.295 72.9885C314.984 74.4282 307.011 75.1481 297.376 75.1481C287.74 75.1481 279.762 74.4282 273.441 72.9885C267.12 71.5487 261.432 69.9905 256.377 68.314C251.322 66.6375 246.317 65.1177 241.361 63.7547C236.405 62.3917 230.346 61.7103 223.184 61.7103C216.259 61.7103 210.26 62.3917 205.185 63.7547C200.11 65.1177 194.981 66.6375 189.797 68.314C184.614 69.9905 178.862 71.5487 172.54 72.9885C166.219 74.4282 158.37 75.1481 148.992 75.1481ZM148.992 32.4349V13.7179C156.164 13.7179 162.282 12.998 167.347 11.5582C172.412 10.1185 177.546 8.56031 182.749 6.88378C187.953 5.20724 193.7 3.68749 199.991 2.3245C206.283 0.961519 214.014 0.280029 223.184 0.280029C232.581 0.280029 240.312 0.961519 246.376 2.3245C252.44 3.68749 258.064 5.20724 263.247 6.88378C268.431 8.56031 273.624 10.1185 278.828 11.5582C284.031 12.998 290.214 13.7179 297.376 13.7179C304.538 13.7179 310.72 12.998 315.923 11.5582C321.127 10.1185 326.32 8.55711 331.504 6.87418C336.687 5.19125 342.375 3.67469 348.568 2.3245C354.76 0.974317 362.427 0.292827 371.567 0.280029C380.965 0.280029 388.755 0.961519 394.938 2.3245C401.12 3.68749 406.808 5.20724 412.002 6.88378C417.195 8.56031 422.389 10.1185 427.582 11.5582C432.776 12.998 438.835 13.7179 445.759 13.7179V32.4349C436.361 32.4349 428.507 31.715 422.196 30.2753C415.885 28.8355 410.137 27.2773 404.954 25.6008C399.77 23.9243 394.7 22.4045 389.744 21.0415C384.788 19.6785 378.729 18.9971 371.567 18.9971C364.643 18.9971 358.643 19.6785 353.568 21.0415C348.494 22.4045 343.424 23.9243 338.359 25.6008C333.294 27.2773 327.606 28.8355 321.295 30.2753C314.984 31.715 307.011 32.4349 297.376 32.4349C287.74 32.4349 279.762 31.715 273.441 30.2753C267.12 28.8355 261.432 27.2741 256.377 25.5912C251.322 23.9083 246.317 22.3917 241.361 21.0415C236.405 19.6913 230.346 19.0098 223.184 18.9971C216.259 18.9971 210.26 19.6785 205.185 21.0415C200.11 22.4045 194.981 23.9243 189.797 25.6008C184.614 27.2773 178.862 28.8355 172.54 30.2753C166.219 31.715 158.37 32.4349 148.992 32.4349Z" fill="black"/>
<path d="M297.981 160.575V141.858C305.153 141.858 311.276 141.138 316.351 139.698C321.426 138.258 326.555 136.697 331.738 135.014C336.922 133.331 342.674 131.811 348.995 130.455C355.317 129.098 363.042 128.42 372.173 128.42C381.571 128.42 389.301 129.101 395.365 130.464C401.429 131.827 407.053 133.344 412.237 135.014C417.42 136.684 422.614 138.245 427.817 139.698C433.02 141.15 439.203 141.87 446.365 141.858C453.527 141.845 459.709 141.125 464.913 139.698C470.116 138.271 475.309 136.71 480.493 135.014C485.677 133.318 491.365 131.798 497.557 130.455C503.75 129.111 511.416 128.432 520.557 128.42C529.954 128.42 537.744 129.101 543.927 130.464C550.11 131.827 555.798 133.344 560.991 135.014C566.185 136.684 571.378 138.245 576.571 139.698C581.765 141.15 587.824 141.87 594.748 141.858V160.575C585.351 160.575 577.496 159.855 571.185 158.415C564.874 156.975 559.126 155.417 553.943 153.74C548.759 152.064 543.69 150.544 538.734 149.181C533.778 147.818 527.719 147.137 520.557 147.137C513.632 147.137 507.632 147.818 502.558 149.181C497.483 150.544 492.413 152.064 487.348 153.74C482.284 155.417 476.595 156.975 470.284 158.415C463.973 159.855 456 160.575 446.365 160.575C436.73 160.575 428.752 159.855 422.431 158.415C416.109 156.975 410.421 155.417 405.366 153.74C400.311 152.064 395.306 150.544 390.35 149.181C385.394 147.818 379.335 147.137 372.173 147.137C365.248 147.137 359.249 147.818 354.174 149.181C349.099 150.544 343.97 152.064 338.787 153.74C333.603 155.417 327.851 156.975 321.53 158.415C315.209 159.855 307.359 160.575 297.981 160.575ZM297.981 117.861V99.1443C305.153 99.1443 311.271 98.4244 316.336 96.9847C321.401 95.5449 326.535 93.9867 331.738 92.3102C336.942 90.6337 342.689 89.1139 348.981 87.7509C355.272 86.3879 363.003 85.7064 372.173 85.7064C381.571 85.7064 389.301 86.3879 395.365 87.7509C401.429 89.1139 407.053 90.6337 412.237 92.3102C417.42 93.9867 422.614 95.5449 427.817 96.9847C433.02 98.4244 439.203 99.1443 446.365 99.1443C453.527 99.1443 459.709 98.4244 464.913 96.9847C470.116 95.5449 475.309 93.9867 480.493 92.3102C485.677 90.6337 491.365 89.1139 497.557 87.7509C503.75 86.3879 511.416 85.7064 520.557 85.7064C529.954 85.7064 537.744 86.3879 543.927 87.7509C550.11 89.1139 555.798 90.6337 560.991 92.3102C566.185 93.9867 571.378 95.5449 576.571 96.9847C581.765 98.4244 587.824 99.1443 594.748 99.1443V117.861C585.351 117.861 577.496 117.141 571.185 115.702C564.874 114.262 559.126 112.701 553.943 111.018C548.759 109.335 543.69 107.818 538.734 106.468C533.778 105.118 527.719 104.436 520.557 104.423C513.395 104.411 507.276 105.092 502.202 106.468C497.127 107.844 492.052 109.363 486.977 111.027C481.903 112.691 476.279 114.249 470.106 115.702C463.933 117.154 456.02 117.874 446.365 117.861C436.71 117.849 428.737 117.129 422.445 115.702C416.154 114.275 410.466 112.713 405.381 111.018C400.297 109.322 395.286 107.805 390.35 106.468C385.414 105.131 379.355 104.449 372.173 104.423C365.248 104.423 359.254 105.105 354.189 106.468C349.124 107.831 343.99 109.351 338.787 111.027C333.583 112.704 327.836 114.262 321.545 115.702C315.253 117.141 307.399 117.861 297.981 117.861ZM297.981 75.1481V56.4311C305.153 56.4311 311.276 55.7112 316.351 54.2714C321.426 52.8317 326.555 51.2703 331.738 49.5874C336.922 47.9045 342.674 46.3847 348.995 45.0281C355.317 43.6715 363.042 42.9932 372.173 42.9932C381.571 42.9932 389.301 43.6747 395.365 45.0377C401.429 46.4007 407.053 47.9173 412.237 49.5874C417.42 51.2575 422.614 52.8189 427.817 54.2714C433.02 55.724 439.203 56.4439 446.365 56.4311C453.527 56.4183 459.709 55.6984 464.913 54.2714C470.116 52.8445 475.309 51.2831 480.493 49.5874C485.677 47.8917 491.365 46.3719 497.557 45.0281C503.75 43.6843 511.416 43.006 520.557 42.9932C529.954 42.9932 537.744 43.6747 543.927 45.0377C550.11 46.4007 555.798 47.9173 560.991 49.5874C566.185 51.2575 571.378 52.8189 576.571 54.2714C581.765 55.724 587.824 56.4439 594.748 56.4311V75.1481C585.351 75.1481 577.496 74.4282 571.185 72.9885C564.874 71.5487 559.126 69.9905 553.943 68.314C548.759 66.6375 543.69 65.1177 538.734 63.7547C533.778 62.3917 527.719 61.7103 520.557 61.7103C513.632 61.7103 507.632 62.3917 502.558 63.7547C497.483 65.1177 492.413 66.6375 487.348 68.314C482.284 69.9905 476.595 71.5487 470.284 72.9885C463.973 74.4282 456 75.1481 446.365 75.1481C436.73 75.1481 428.752 74.4282 422.431 72.9885C416.109 71.5487 410.421 69.9905 405.366 68.314C400.311 66.6375 395.306 65.1177 390.35 63.7547C385.394 62.3917 379.335 61.7103 372.173 61.7103C365.248 61.7103 359.249 62.3917 354.174 63.7547C349.099 65.1177 343.97 66.6375 338.787 68.314C333.603 69.9905 327.851 71.5487 321.53 72.9885C315.209 74.4282 307.359 75.1481 297.981 75.1481ZM297.981 32.4349V13.7179C305.153 13.7179 311.271 12.998 316.336 11.5582C321.401 10.1185 326.535 8.56031 331.738 6.88378C336.942 5.20724 342.689 3.68749 348.981 2.3245C355.272 0.961519 363.003 0.280029 372.173 0.280029C381.571 0.280029 389.301 0.961519 395.365 2.3245C401.429 3.68749 407.053 5.20724 412.237 6.88378C417.42 8.56031 422.614 10.1185 427.817 11.5582C433.02 12.998 439.203 13.7179 446.365 13.7179C453.527 13.7179 459.709 12.998 464.913 11.5582C470.116 10.1185 475.309 8.55711 480.493 6.87418C485.677 5.19125 491.365 3.67469 497.557 2.3245C503.75 0.974317 511.416 0.292827 520.557 0.280029C529.954 0.280029 537.744 0.961519 543.927 2.3245C550.11 3.68749 555.798 5.20724 560.991 6.88378C566.185 8.56031 571.378 10.1185 576.571 11.5582C581.765 12.998 587.824 13.7179 594.748 13.7179V32.4349C585.351 32.4349 577.496 31.715 571.185 30.2753C564.874 28.8355 559.126 27.2773 553.943 25.6008C548.759 23.9243 543.69 22.4045 538.734 21.0415C533.778 19.6785 527.719 18.9971 520.557 18.9971C513.632 18.9971 507.632 19.6785 502.558 21.0415C497.483 22.4045 492.413 23.9243 487.348 25.6008C482.284 27.2773 476.595 28.8355 470.284 30.2753C463.973 31.715 456 32.4349 446.365 32.4349C436.73 32.4349 428.752 31.715 422.431 30.2753C416.109 28.8355 410.421 27.2741 405.366 25.5912C400.311 23.9083 395.306 22.3917 390.35 21.0415C385.394 19.6913 379.335 19.0098 372.173 18.9971C365.248 18.9971 359.249 19.6785 354.174 21.0415C349.099 22.4045 343.97 23.9243 338.787 25.6008C333.603 27.2773 327.851 28.8355 321.53 30.2753C315.209 31.715 307.359 32.4349 297.981 32.4349Z" fill="black"/>
<path d="M446.97 160.575V141.858C454.142 141.858 460.266 141.138 465.34 139.698C470.415 138.258 475.544 136.697 480.728 135.014C485.911 133.331 491.664 131.811 497.985 130.455C504.306 129.098 512.032 128.42 521.162 128.42C530.56 128.42 538.291 129.101 544.355 130.464C550.419 131.827 556.042 133.344 561.226 135.014C566.409 136.684 571.603 138.245 576.806 139.698C582.009 141.15 588.192 141.87 595.354 141.858C602.516 141.845 608.699 141.125 613.902 139.698C619.105 138.271 624.299 136.71 629.482 135.014C634.666 133.318 640.354 131.798 646.546 130.455C652.739 129.111 660.405 128.432 669.546 128.42C678.943 128.42 686.734 129.101 692.916 130.464C699.099 131.827 704.787 133.344 709.98 135.014C715.174 136.684 720.367 138.245 725.561 139.698C730.754 141.15 736.813 141.87 743.738 141.858V160.575C734.34 160.575 726.486 159.855 720.174 158.415C713.863 156.975 708.116 155.417 702.932 153.74C697.749 152.064 692.679 150.544 687.723 149.181C682.767 147.818 676.708 147.137 669.546 147.137C662.621 147.137 656.622 147.818 651.547 149.181C646.472 150.544 641.402 152.064 636.338 153.74C631.273 155.417 625.585 156.975 619.273 158.415C612.962 159.855 604.989 160.575 595.354 160.575C585.719 160.575 577.741 159.855 571.42 158.415C565.099 156.975 559.411 155.417 554.356 153.74C549.301 152.064 544.295 150.544 539.339 149.181C534.383 147.818 528.324 147.137 521.162 147.137C514.238 147.137 508.238 147.818 503.163 149.181C498.089 150.544 492.959 152.064 487.776 153.74C482.592 155.417 476.84 156.975 470.519 158.415C464.198 159.855 456.348 160.575 446.97 160.575ZM446.97 117.861V99.1443C454.142 99.1443 460.261 98.4244 465.326 96.9847C470.39 95.5449 475.524 93.9867 480.728 92.3102C485.931 90.6337 491.678 89.1139 497.97 87.7509C504.261 86.3879 511.992 85.7064 521.162 85.7064C530.56 85.7064 538.291 86.3879 544.355 87.7509C550.419 89.1139 556.042 90.6337 561.226 92.3102C566.409 93.9867 571.603 95.5449 576.806 96.9847C582.009 98.4244 588.192 99.1443 595.354 99.1443C602.516 99.1443 608.699 98.4244 613.902 96.9847C619.105 95.5449 624.299 93.9867 629.482 92.3102C634.666 90.6337 640.354 89.1139 646.546 87.7509C652.739 86.3879 660.405 85.7064 669.546 85.7064C678.943 85.7064 686.734 86.3879 692.916 87.7509C699.099 89.1139 704.787 90.6337 709.98 92.3102C715.174 93.9867 720.367 95.5449 725.561 96.9847C730.754 98.4244 736.813 99.1443 743.738 99.1443V117.861C734.34 117.861 726.486 117.141 720.174 115.702C713.863 114.262 708.116 112.701 702.932 111.018C697.749 109.335 692.679 107.818 687.723 106.468C682.767 105.118 676.708 104.436 669.546 104.423C662.384 104.411 656.265 105.092 651.191 106.468C646.116 107.844 641.041 109.363 635.967 111.027C630.892 112.691 625.268 114.249 619.095 115.702C612.923 117.154 605.009 117.874 595.354 117.861C585.699 117.849 577.726 117.129 571.435 115.702C565.143 114.275 559.455 112.713 554.37 111.018C549.286 109.322 544.275 107.805 539.339 106.468C534.403 105.131 528.344 104.449 521.162 104.423C514.238 104.423 508.243 105.105 503.178 106.468C498.113 107.831 492.979 109.351 487.776 111.027C482.573 112.704 476.825 114.262 470.534 115.702C464.242 117.141 456.388 117.861 446.97 117.861ZM446.97 75.1481V56.4311C454.142 56.4311 460.266 55.7112 465.34 54.2714C470.415 52.8317 475.544 51.2703 480.728 49.5874C485.911 47.9045 491.664 46.3847 497.985 45.0281C504.306 43.6715 512.032 42.9932 521.162 42.9932C530.56 42.9932 538.291 43.6747 544.355 45.0377C550.419 46.4007 556.042 47.9173 561.226 49.5874C566.409 51.2575 571.603 52.8189 576.806 54.2714C582.009 55.724 588.192 56.4439 595.354 56.4311C602.516 56.4183 608.699 55.6984 613.902 54.2714C619.105 52.8445 624.299 51.2831 629.482 49.5874C634.666 47.8917 640.354 46.3719 646.546 45.0281C652.739 43.6843 660.405 43.006 669.546 42.9932C678.943 42.9932 686.734 43.6747 692.916 45.0377C699.099 46.4007 704.787 47.9173 709.98 49.5874C715.174 51.2575 720.367 52.8189 725.561 54.2714C730.754 55.724 736.813 56.4439 743.738 56.4311V75.1481C734.34 75.1481 726.486 74.4282 720.174 72.9885C713.863 71.5487 708.116 69.9905 702.932 68.314C697.749 66.6375 692.679 65.1177 687.723 63.7547C682.767 62.3917 676.708 61.7103 669.546 61.7103C662.621 61.7103 656.622 62.3917 651.547 63.7547C646.472 65.1177 641.402 66.6375 636.338 68.314C631.273 69.9905 625.585 71.5487 619.273 72.9885C612.962 74.4282 604.989 75.1481 595.354 75.1481C585.719 75.1481 577.741 74.4282 571.42 72.9885C565.099 71.5487 559.411 69.9905 554.356 68.314C549.301 66.6375 544.295 65.1177 539.339 63.7547C534.383 62.3917 528.324 61.7103 521.162 61.7103C514.238 61.7103 508.238 62.3917 503.163 63.7547C498.089 65.1177 492.959 66.6375 487.776 68.314C482.592 69.9905 476.84 71.5487 470.519 72.9885C464.198 74.4282 456.348 75.1481 446.97 75.1481ZM446.97 32.4349V13.7179C454.142 13.7179 460.261 12.998 465.326 11.5582C470.39 10.1185 475.524 8.56031 480.728 6.88378C485.931 5.20724 491.678 3.68749 497.97 2.3245C504.261 0.961519 511.992 0.280029 521.162 0.280029C530.56 0.280029 538.291 0.961519 544.355 2.3245C550.419 3.68749 556.042 5.20724 561.226 6.88378C566.409 8.56031 571.603 10.1185 576.806 11.5582C582.009 12.998 588.192 13.7179 595.354 13.7179C602.516 13.7179 608.699 12.998 613.902 11.5582C619.105 10.1185 624.299 8.55711 629.482 6.87418C634.666 5.19125 640.354 3.67469 646.546 2.3245C652.739 0.974317 660.405 0.292827 669.546 0.280029C678.943 0.280029 686.734 0.961519 692.916 2.3245C699.099 3.68749 704.787 5.20724 709.98 6.88378C715.174 8.56031 720.367 10.1185 725.561 11.5582C730.754 12.998 736.813 13.7179 743.738 13.7179V32.4349C734.34 32.4349 726.486 31.715 720.174 30.2753C713.863 28.8355 708.116 27.2773 702.932 25.6008C697.749 23.9243 692.679 22.4045 687.723 21.0415C682.767 19.6785 676.708 18.9971 669.546 18.9971C662.621 18.9971 656.622 19.6785 651.547 21.0415C646.472 22.4045 641.402 23.9243 636.338 25.6008C631.273 27.2773 625.585 28.8355 619.273 30.2753C612.962 31.715 604.989 32.4349 595.354 32.4349C585.719 32.4349 577.741 31.715 571.42 30.2753C565.099 28.8355 559.411 27.2741 554.356 25.5912C549.301 23.9083 544.295 22.3917 539.339 21.0415C534.383 19.6913 528.324 19.0098 521.162 18.9971C514.238 18.9971 508.238 19.6785 503.163 21.0415C498.089 22.4045 492.959 23.9243 487.776 25.6008C482.592 27.2773 476.84 28.8355 470.519 30.2753C464.198 31.715 456.348 32.4349 446.97 32.4349Z" fill="black"/>
<path d="M595.96 160.575V141.858C603.132 141.858 609.255 141.138 614.33 139.698C619.404 138.258 624.533 136.697 629.717 135.014C634.901 133.331 640.653 131.811 646.974 130.455C653.295 129.098 661.021 128.42 670.152 128.42C679.549 128.42 687.28 129.101 693.344 130.464C699.408 131.827 705.032 133.344 710.215 135.014C715.399 136.684 720.592 138.245 725.795 139.698C730.999 141.15 737.181 141.87 744.343 141.858C751.505 141.845 757.688 141.125 762.891 139.698C768.095 138.271 773.288 136.71 778.472 135.014C783.655 133.318 789.343 131.798 795.536 130.455C801.728 129.111 809.395 128.432 818.535 128.42C827.933 128.42 835.723 129.101 841.906 130.464C848.088 131.827 853.776 133.344 858.97 135.014C864.163 136.684 869.356 138.245 874.55 139.698C879.743 141.15 885.802 141.87 892.727 141.858V160.575C883.329 160.575 875.475 159.855 869.164 158.415C862.852 156.975 857.105 155.417 851.921 153.74C846.738 152.064 841.668 150.544 836.712 149.181C831.756 147.818 825.697 147.137 818.535 147.137C811.611 147.137 805.611 147.818 800.536 149.181C795.461 150.544 790.392 152.064 785.327 153.74C780.262 155.417 774.574 156.975 768.263 158.415C761.951 159.855 753.978 160.575 744.343 160.575C734.708 160.575 726.73 159.855 720.409 158.415C714.088 156.975 708.4 155.417 703.345 153.74C698.29 152.064 693.285 150.544 688.329 149.181C683.372 147.818 677.313 147.137 670.152 147.137C663.227 147.137 657.227 147.818 652.153 149.181C647.078 150.544 641.949 152.064 636.765 153.74C631.582 155.417 625.829 156.975 619.508 158.415C613.187 159.855 605.338 160.575 595.96 160.575ZM595.96 117.861V99.1443C603.132 99.1443 609.25 98.4244 614.315 96.9847C619.38 95.5449 624.514 93.9867 629.717 92.3102C634.92 90.6337 640.668 89.1139 646.959 87.7509C653.251 86.3879 660.981 85.7064 670.152 85.7064C679.549 85.7064 687.28 86.3879 693.344 87.7509C699.408 89.1139 705.032 90.6337 710.215 92.3102C715.399 93.9867 720.592 95.5449 725.795 96.9847C730.999 98.4244 737.181 99.1443 744.343 99.1443C751.505 99.1443 757.688 98.4244 762.891 96.9847C768.095 95.5449 773.288 93.9867 778.472 92.3102C783.655 90.6337 789.343 89.1139 795.536 87.7509C801.728 86.3879 809.395 85.7064 818.535 85.7064C827.933 85.7064 835.723 86.3879 841.906 87.7509C848.088 89.1139 853.776 90.6337 858.97 92.3102C864.163 93.9867 869.356 95.5449 874.55 96.9847C879.743 98.4244 885.802 99.1443 892.727 99.1443V117.861C883.329 117.861 875.475 117.141 869.164 115.702C862.852 114.262 857.105 112.701 851.921 111.018C846.738 109.335 841.668 107.818 836.712 106.468C831.756 105.118 825.697 104.436 818.535 104.423C811.373 104.411 805.255 105.092 800.18 106.468C795.105 107.844 790.031 109.363 784.956 111.027C779.881 112.691 774.257 114.249 768.085 115.702C761.912 117.154 753.998 117.874 744.343 117.861C734.688 117.849 726.715 117.129 720.424 115.702C714.132 114.275 708.444 112.713 703.36 111.018C698.275 109.322 693.265 107.805 688.329 106.468C683.392 105.131 677.333 104.449 670.152 104.423C663.227 104.423 657.232 105.105 652.167 106.468C647.103 107.831 641.969 109.351 636.765 111.027C631.562 112.704 625.814 114.262 619.523 115.702C613.232 117.141 605.377 117.861 595.96 117.861ZM595.96 75.1481V56.4311C603.132 56.4311 609.255 55.7112 614.33 54.2714C619.404 52.8317 624.533 51.2703 629.717 49.5874C634.901 47.9045 640.653 46.3847 646.974 45.0281C653.295 43.6715 661.021 42.9932 670.152 42.9932C679.549 42.9932 687.28 43.6747 693.344 45.0377C699.408 46.4007 705.032 47.9173 710.215 49.5874C715.399 51.2575 720.592 52.8189 725.795 54.2714C730.999 55.724 737.181 56.4439 744.343 56.4311C751.505 56.4183 757.688 55.6984 762.891 54.2714C768.095 52.8445 773.288 51.2831 778.472 49.5874C783.655 47.8917 789.343 46.3719 795.536 45.0281C801.728 43.6843 809.395 43.006 818.535 42.9932C827.933 42.9932 835.723 43.6747 841.906 45.0377C848.088 46.4007 853.776 47.9173 858.97 49.5874C864.163 51.2575 869.356 52.8189 874.55 54.2714C879.743 55.724 885.802 56.4439 892.727 56.4311V75.1481C883.329 75.1481 875.475 74.4282 869.164 72.9885C862.852 71.5487 857.105 69.9905 851.921 68.314C846.738 66.6375 841.668 65.1177 836.712 63.7547C831.756 62.3917 825.697 61.7103 818.535 61.7103C811.611 61.7103 805.611 62.3917 800.536 63.7547C795.461 65.1177 790.392 66.6375 785.327 68.314C780.262 69.9905 774.574 71.5487 768.263 72.9885C761.951 74.4282 753.978 75.1481 744.343 75.1481C734.708 75.1481 726.73 74.4282 720.409 72.9885C714.088 71.5487 708.4 69.9905 703.345 68.314C698.29 66.6375 693.285 65.1177 688.329 63.7547C683.372 62.3917 677.313 61.7103 670.152 61.7103C663.227 61.7103 657.227 62.3917 652.153 63.7547C647.078 65.1177 641.949 66.6375 636.765 68.314C631.582 69.9905 625.829 71.5487 619.508 72.9885C613.187 74.4282 605.338 75.1481 595.96 75.1481ZM595.96 32.4349V13.7179C603.132 13.7179 609.25 12.998 614.315 11.5582C619.38 10.1185 624.514 8.56031 629.717 6.88378C634.92 5.20724 640.668 3.68749 646.959 2.3245C653.251 0.961519 660.981 0.280029 670.152 0.280029C679.549 0.280029 687.28 0.961519 693.344 2.3245C699.408 3.68749 705.032 5.20724 710.215 6.88378C715.399 8.56031 720.592 10.1185 725.795 11.5582C730.999 12.998 737.181 13.7179 744.343 13.7179C751.505 13.7179 757.688 12.998 762.891 11.5582C768.095 10.1185 773.288 8.55711 778.472 6.87418C783.655 5.19125 789.343 3.67469 795.536 2.3245C801.728 0.974317 809.395 0.292827 818.535 0.280029C827.933 0.280029 835.723 0.961519 841.906 2.3245C848.088 3.68749 853.776 5.20724 858.97 6.88378C864.163 8.56031 869.356 10.1185 874.55 11.5582C879.743 12.998 885.802 13.7179 892.727 13.7179V32.4349C883.329 32.4349 875.475 31.715 869.164 30.2753C862.852 28.8355 857.105 27.2773 851.921 25.6008C846.738 23.9243 841.668 22.4045 836.712 21.0415C831.756 19.6785 825.697 18.9971 818.535 18.9971C811.611 18.9971 805.611 19.6785 800.536 21.0415C795.461 22.4045 790.392 23.9243 785.327 25.6008C780.262 27.2773 774.574 28.8355 768.263 30.2753C761.951 31.715 753.978 32.4349 744.343 32.4349C734.708 32.4349 726.73 31.715 720.409 30.2753C714.088 28.8355 708.4 27.2741 703.345 25.5912C698.29 23.9083 693.285 22.3917 688.329 21.0415C683.372 19.6913 677.313 19.0098 670.152 18.9971C663.227 18.9971 657.227 19.6785 652.153 21.0415C647.078 22.4045 641.949 23.9243 636.765 25.6008C631.582 27.2773 625.829 28.8355 619.508 30.2753C613.187 31.715 605.338 32.4349 595.96 32.4349Z" fill="black"/>
<path d="M744.949 160.575V141.858C752.121 141.858 758.244 141.138 763.319 139.698C768.394 138.258 773.523 136.697 778.706 135.014C783.89 133.331 789.642 131.811 795.963 130.455C802.284 129.098 810.01 128.42 819.141 128.42C828.538 128.42 836.269 129.101 842.333 130.464C848.397 131.827 854.021 133.344 859.204 135.014C864.388 136.684 869.581 138.245 874.785 139.698C879.988 141.15 886.171 141.87 893.333 141.858C900.495 141.845 906.677 141.125 911.881 139.698C917.084 138.271 922.277 136.71 927.461 135.014C932.644 133.318 938.332 131.798 944.525 130.455C950.717 129.111 958.384 128.432 967.524 128.42C976.922 128.42 984.712 129.101 990.895 130.464C997.077 131.827 1002.77 133.344 1007.96 135.014C1013.15 136.684 1018.35 138.245 1023.54 139.698C1028.73 141.15 1034.79 141.87 1041.72 141.858V160.575C1032.32 160.575 1024.46 159.855 1018.15 158.415C1011.84 156.975 1006.09 155.417 1000.91 153.74C995.727 152.064 990.657 150.544 985.701 149.181C980.745 147.818 974.686 147.137 967.524 147.137C960.6 147.137 954.6 147.818 949.525 149.181C944.451 150.544 939.381 152.064 934.316 153.74C929.251 155.417 923.563 156.975 917.252 158.415C910.941 159.855 902.968 160.575 893.333 160.575C883.698 160.575 875.719 159.855 869.398 158.415C863.077 156.975 857.389 155.417 852.334 153.74C847.279 152.064 842.274 150.544 837.318 149.181C832.362 147.818 826.303 147.137 819.141 147.137C812.216 147.137 806.217 147.818 801.142 149.181C796.067 150.544 790.938 152.064 785.754 153.74C780.571 155.417 774.819 156.975 768.497 158.415C762.176 159.855 754.327 160.575 744.949 160.575ZM744.949 117.861V99.1443C752.121 99.1443 758.239 98.4244 763.304 96.9847C768.369 95.5449 773.503 93.9867 778.706 92.3102C783.91 90.6337 789.657 89.1139 795.948 87.7509C802.24 86.3879 809.971 85.7064 819.141 85.7064C828.538 85.7064 836.269 86.3879 842.333 87.7509C848.397 89.1139 854.021 90.6337 859.204 92.3102C864.388 93.9867 869.581 95.5449 874.785 96.9847C879.988 98.4244 886.171 99.1443 893.333 99.1443C900.495 99.1443 906.677 98.4244 911.881 96.9847C917.084 95.5449 922.277 93.9867 927.461 92.3102C932.644 90.6337 938.332 89.1139 944.525 87.7509C950.717 86.3879 958.384 85.7064 967.524 85.7064C976.922 85.7064 984.712 86.3879 990.895 87.7509C997.077 89.1139 1002.77 90.6337 1007.96 92.3102C1013.15 93.9867 1018.35 95.5449 1023.54 96.9847C1028.73 98.4244 1034.79 99.1443 1041.72 99.1443V117.861C1032.32 117.861 1024.46 117.141 1018.15 115.702C1011.84 114.262 1006.09 112.701 1000.91 111.018C995.727 109.335 990.657 107.818 985.701 106.468C980.745 105.118 974.686 104.436 967.524 104.423C960.362 104.411 954.244 105.092 949.169 106.468C944.095 107.844 939.02 109.363 933.945 111.027C928.87 112.691 923.247 114.249 917.074 115.702C910.901 117.154 902.987 117.874 893.333 117.861C883.678 117.849 875.705 117.129 869.413 115.702C863.122 114.275 857.434 112.713 852.349 111.018C847.264 109.322 842.254 107.805 837.318 106.468C832.382 105.131 826.323 104.449 819.141 104.423C812.216 104.423 806.222 105.105 801.157 106.468C796.092 107.831 790.958 109.351 785.754 111.027C780.551 112.704 774.804 114.262 768.512 115.702C762.221 117.141 754.366 117.861 744.949 117.861ZM744.949 75.1481V56.4311C752.121 56.4311 758.244 55.7112 763.319 54.2714C768.394 52.8317 773.523 51.2703 778.706 49.5874C783.89 47.9045 789.642 46.3847 795.963 45.0281C802.284 43.6715 810.01 42.9932 819.141 42.9932C828.538 42.9932 836.269 43.6747 842.333 45.0377C848.397 46.4007 854.021 47.9173 859.204 49.5874C864.388 51.2575 869.581 52.8189 874.785 54.2714C879.988 55.724 886.171 56.4439 893.333 56.4311C900.495 56.4183 906.677 55.6984 911.881 54.2714C917.084 52.8445 922.277 51.2831 927.461 49.5874C932.644 47.8917 938.332 46.3719 944.525 45.0281C950.717 43.6843 958.384 43.006 967.524 42.9932C976.922 42.9932 984.712 43.6747 990.895 45.0377C997.077 46.4007 1002.77 47.9173 1007.96 49.5874C1013.15 51.2575 1018.35 52.8189 1023.54 54.2714C1028.73 55.724 1034.79 56.4439 1041.72 56.4311V75.1481C1032.32 75.1481 1024.46 74.4282 1018.15 72.9885C1011.84 71.5487 1006.09 69.9905 1000.91 68.314C995.727 66.6375 990.657 65.1177 985.701 63.7547C980.745 62.3917 974.686 61.7103 967.524 61.7103C960.6 61.7103 954.6 62.3917 949.525 63.7547C944.451 65.1177 939.381 66.6375 934.316 68.314C929.251 69.9905 923.563 71.5487 917.252 72.9885C910.941 74.4282 902.968 75.1481 893.333 75.1481C883.698 75.1481 875.719 74.4282 869.398 72.9885C863.077 71.5487 857.389 69.9905 852.334 68.314C847.279 66.6375 842.274 65.1177 837.318 63.7547C832.362 62.3917 826.303 61.7103 819.141 61.7103C812.216 61.7103 806.217 62.3917 801.142 63.7547C796.067 65.1177 790.938 66.6375 785.754 68.314C780.571 69.9905 774.819 71.5487 768.497 72.9885C762.176 74.4282 754.327 75.1481 744.949 75.1481ZM744.949 32.4349V13.7179C752.121 13.7179 758.239 12.998 763.304 11.5582C768.369 10.1185 773.503 8.56031 778.706 6.88378C783.91 5.20724 789.657 3.68749 795.948 2.3245C802.24 0.961519 809.971 0.280029 819.141 0.280029C828.538 0.280029 836.269 0.961519 842.333 2.3245C848.397 3.68749 854.021 5.20724 859.204 6.88378C864.388 8.56031 869.581 10.1185 874.785 11.5582C879.988 12.998 886.171 13.7179 893.333 13.7179C900.495 13.7179 906.677 12.998 911.881 11.5582C917.084 10.1185 922.277 8.55711 927.461 6.87418C932.644 5.19125 938.332 3.67469 944.525 2.3245C950.717 0.974317 958.384 0.292827 967.524 0.280029C976.922 0.280029 984.712 0.961519 990.895 2.3245C997.077 3.68749 1002.77 5.20724 1007.96 6.88378C1013.15 8.56031 1018.35 10.1185 1023.54 11.5582C1028.73 12.998 1034.79 13.7179 1041.72 13.7179V32.4349C1032.32 32.4349 1024.46 31.715 1018.15 30.2753C1011.84 28.8355 1006.09 27.2773 1000.91 25.6008C995.727 23.9243 990.657 22.4045 985.701 21.0415C980.745 19.6785 974.686 18.9971 967.524 18.9971C960.6 18.9971 954.6 19.6785 949.525 21.0415C944.451 22.4045 939.381 23.9243 934.316 25.6008C929.251 27.2773 923.563 28.8355 917.252 30.2753C910.941 31.715 902.968 32.4349 893.333 32.4349C883.698 32.4349 875.719 31.715 869.398 30.2753C863.077 28.8355 857.389 27.2741 852.334 25.5912C847.279 23.9083 842.274 22.3917 837.318 21.0415C832.362 19.6913 826.303 19.0098 819.141 18.9971C812.216 18.9971 806.217 19.6785 801.142 21.0415C796.067 22.4045 790.938 23.9243 785.754 25.6008C780.571 27.2773 774.819 28.8355 768.497 30.2753C762.176 31.715 754.327 32.4349 744.949 32.4349Z" fill="black"/>
<path d="M893.938 160.575V141.858C901.11 141.858 907.233 141.138 912.308 139.698C917.383 138.258 922.512 136.697 927.695 135.014C932.879 133.331 938.631 131.811 944.952 130.455C951.274 129.098 958.999 128.42 968.13 128.42C977.528 128.42 985.258 129.101 991.322 130.464C997.386 131.827 1003.01 133.344 1008.19 135.014C1013.38 136.684 1018.57 138.245 1023.77 139.698C1028.98 141.15 1035.16 141.87 1042.32 141.858C1049.48 141.845 1055.67 141.125 1060.87 139.698C1066.07 138.271 1071.27 136.71 1076.45 135.014C1081.63 133.318 1087.32 131.798 1093.51 130.455C1099.71 129.111 1107.37 128.432 1116.51 128.42C1125.91 128.42 1133.7 129.101 1139.88 130.464C1146.07 131.827 1151.75 133.344 1156.95 135.014C1162.14 136.684 1167.33 138.245 1172.53 139.698C1177.72 141.15 1183.78 141.87 1190.71 141.858V160.575C1181.31 160.575 1173.45 159.855 1167.14 158.415C1160.83 156.975 1155.08 155.417 1149.9 153.74C1144.72 152.064 1139.65 150.544 1134.69 149.181C1129.73 147.818 1123.68 147.137 1116.51 147.137C1109.59 147.137 1103.59 147.818 1098.51 149.181C1093.44 150.544 1088.37 152.064 1083.31 153.74C1078.24 155.417 1072.55 156.975 1066.24 158.415C1059.93 159.855 1051.96 160.575 1042.32 160.575C1032.69 160.575 1024.71 159.855 1018.39 158.415C1012.07 156.975 1006.38 155.417 1001.32 153.74C996.268 152.064 991.263 150.544 986.307 149.181C981.351 147.818 975.292 147.137 968.13 147.137C961.205 147.137 955.206 147.818 950.131 149.181C945.056 150.544 939.927 152.064 934.744 153.74C929.56 155.417 923.808 156.975 917.487 158.415C911.165 159.855 903.316 160.575 893.938 160.575ZM893.938 117.861V99.1443C901.11 99.1443 907.228 98.4244 912.293 96.9847C917.358 95.5449 922.492 93.9867 927.695 92.3102C932.899 90.6337 938.646 89.1139 944.938 87.7509C951.229 86.3879 958.96 85.7064 968.13 85.7064C977.528 85.7064 985.258 86.3879 991.322 87.7509C997.386 89.1139 1003.01 90.6337 1008.19 92.3102C1013.38 93.9867 1018.57 95.5449 1023.77 96.9847C1028.98 98.4244 1035.16 99.1443 1042.32 99.1443C1049.48 99.1443 1055.67 98.4244 1060.87 96.9847C1066.07 95.5449 1071.27 93.9867 1076.45 92.3102C1081.63 90.6337 1087.32 89.1139 1093.51 87.7509C1099.71 86.3879 1107.37 85.7064 1116.51 85.7064C1125.91 85.7064 1133.7 86.3879 1139.88 87.7509C1146.07 89.1139 1151.75 90.6337 1156.95 92.3102C1162.14 93.9867 1167.33 95.5449 1172.53 96.9847C1177.72 98.4244 1183.78 99.1443 1190.71 99.1443V117.861C1181.31 117.861 1173.45 117.141 1167.14 115.702C1160.83 114.262 1155.08 112.701 1149.9 111.018C1144.72 109.335 1139.65 107.818 1134.69 106.468C1129.73 105.118 1123.68 104.436 1116.51 104.423C1109.35 104.411 1103.23 105.092 1098.16 106.468C1093.08 107.844 1088.01 109.363 1082.93 111.027C1077.86 112.691 1072.24 114.249 1066.06 115.702C1059.89 117.154 1051.98 117.874 1042.32 117.861C1032.67 117.849 1024.69 117.129 1018.4 115.702C1012.11 114.275 1006.42 112.713 1001.34 111.018C996.254 109.322 991.243 107.805 986.307 106.468C981.371 105.131 975.312 104.449 968.13 104.423C961.205 104.423 955.211 105.105 950.146 106.468C945.081 107.831 939.947 109.351 934.744 111.027C929.54 112.704 923.793 114.262 917.501 115.702C911.21 117.141 903.356 117.861 893.938 117.861ZM893.938 75.1481V56.4311C901.11 56.4311 907.233 55.7112 912.308 54.2714C917.383 52.8317 922.512 51.2703 927.695 49.5874C932.879 47.9045 938.631 46.3847 944.952 45.0281C951.274 43.6715 958.999 42.9932 968.13 42.9932C977.528 42.9932 985.258 43.6747 991.322 45.0377C997.386 46.4007 1003.01 47.9173 1008.19 49.5874C1013.38 51.2575 1018.57 52.8189 1023.77 54.2714C1028.98 55.724 1035.16 56.4439 1042.32 56.4311C1049.48 56.4183 1055.67 55.6984 1060.87 54.2714C1066.07 52.8445 1071.27 51.2831 1076.45 49.5874C1081.63 47.8917 1087.32 46.3719 1093.51 45.0281C1099.71 43.6843 1107.37 43.006 1116.51 42.9932C1125.91 42.9932 1133.7 43.6747 1139.88 45.0377C1146.07 46.4007 1151.75 47.9173 1156.95 49.5874C1162.14 51.2575 1167.33 52.8189 1172.53 54.2714C1177.72 55.724 1183.78 56.4439 1190.71 56.4311V75.1481C1181.31 75.1481 1173.45 74.4282 1167.14 72.9885C1160.83 71.5487 1155.08 69.9905 1149.9 68.314C1144.72 66.6375 1139.65 65.1177 1134.69 63.7547C1129.73 62.3917 1123.68 61.7103 1116.51 61.7103C1109.59 61.7103 1103.59 62.3917 1098.51 63.7547C1093.44 65.1177 1088.37 66.6375 1083.31 68.314C1078.24 69.9905 1072.55 71.5487 1066.24 72.9885C1059.93 74.4282 1051.96 75.1481 1042.32 75.1481C1032.69 75.1481 1024.71 74.4282 1018.39 72.9885C1012.07 71.5487 1006.38 69.9905 1001.32 68.314C996.268 66.6375 991.263 65.1177 986.307 63.7547C981.351 62.3917 975.292 61.7103 968.13 61.7103C961.205 61.7103 955.206 62.3917 950.131 63.7547C945.056 65.1177 939.927 66.6375 934.744 68.314C929.56 69.9905 923.808 71.5487 917.487 72.9885C911.165 74.4282 903.316 75.1481 893.938 75.1481ZM893.938 32.4349V13.7179C901.11 13.7179 907.228 12.998 912.293 11.5582C917.358 10.1185 922.492 8.56031 927.695 6.88378C932.899 5.20724 938.646 3.68749 944.938 2.3245C951.229 0.961519 958.96 0.280029 968.13 0.280029C977.528 0.280029 985.258 0.961519 991.322 2.3245C997.386 3.68749 1003.01 5.20724 1008.19 6.88378C1013.38 8.56031 1018.57 10.1185 1023.77 11.5582C1028.98 12.998 1035.16 13.7179 1042.32 13.7179C1049.48 13.7179 1055.67 12.998 1060.87 11.5582C1066.07 10.1185 1071.27 8.55711 1076.45 6.87418C1081.63 5.19125 1087.32 3.67469 1093.51 2.3245C1099.71 0.974317 1107.37 0.292827 1116.51 0.280029C1125.91 0.280029 1133.7 0.961519 1139.88 2.3245C1146.07 3.68749 1151.75 5.20724 1156.95 6.88378C1162.14 8.56031 1167.33 10.1185 1172.53 11.5582C1177.72 12.998 1183.78 13.7179 1190.71 13.7179V32.4349C1181.31 32.4349 1173.45 31.715 1167.14 30.2753C1160.83 28.8355 1155.08 27.2773 1149.9 25.6008C1144.72 23.9243 1139.65 22.4045 1134.69 21.0415C1129.73 19.6785 1123.68 18.9971 1116.51 18.9971C1109.59 18.9971 1103.59 19.6785 1098.51 21.0415C1093.44 22.4045 1088.37 23.9243 1083.31 25.6008C1078.24 27.2773 1072.55 28.8355 1066.24 30.2753C1059.93 31.715 1051.96 32.4349 1042.32 32.4349C1032.69 32.4349 1024.71 31.715 1018.39 30.2753C1012.07 28.8355 1006.38 27.2741 1001.32 25.5912C996.268 23.9083 991.263 22.3917 986.307 21.0415C981.351 19.6913 975.292 19.0098 968.13 18.9971C961.205 18.9971 955.206 19.6785 950.131 21.0415C945.056 22.4045 939.927 23.9243 934.744 25.6008C929.56 27.2773 923.808 28.8355 917.487 30.2753C911.165 31.715 903.316 32.4349 893.938 32.4349Z" fill="black"/>
</svg>
